<svg width="232" height="128" viewBox="0 0 232 128" fill="none" xmlns="http://www.w3.org/2000/svg">
<path d="M215.42 1.67488H134.158V1.24938C134.158 0.918024 134.026 0.60024 133.792 0.365938C133.557 0.131636 133.24 0 132.908 0H98.5597C98.2283 5.26278e-06 97.9106 0.131636 97.6763 0.365938C97.442 0.600239 97.3103 0.918027 97.3103 1.24938V1.67488H15.7134C14.2556 1.67488 12.8575 2.254 11.8266 3.28484C10.7958 4.31568 10.2167 5.7138 10.2167 7.17163V118.444C10.2167 119.902 10.7958 121.3 11.8266 122.331C12.8575 123.362 14.2556 123.941 15.7134 123.941H215.42C216.877 123.941 218.275 123.362 219.306 122.331C220.337 121.3 220.916 119.902 220.916 118.444V7.17163C220.916 5.7138 220.337 4.31568 219.306 3.28484C218.276 2.254 216.877 1.67488 215.42 1.67488V1.67488Z" fill="#3F3D56"/>
<path d="M20.0849 13.3735C19.9485 13.3737 19.8177 13.4279 19.7213 13.5244C19.6249 13.6208 19.5707 13.7516 19.5706 13.888V119.433C19.5707 119.569 19.6249 119.7 19.7214 119.796C19.8178 119.892 19.9485 119.947 20.0849 119.947H211.048C211.184 119.947 211.315 119.892 211.412 119.796C211.508 119.7 211.562 119.569 211.562 119.433V13.888C211.562 13.7516 211.508 13.6208 211.412 13.5244C211.315 13.4279 211.184 13.3736 211.048 13.3735H20.0849Z" fill="#6C63FF"/>
<path d="M115.399 8.37444C116.509 8.37444 117.409 7.4746 117.409 6.36459C117.409 5.25458 116.509 4.35474 115.399 4.35474C114.289 4.35474 113.389 5.25458 113.389 6.36459C113.389 7.4746 114.289 8.37444 115.399 8.37444Z" fill="#6C63FF"/>
<path d="M224.576 116.442H205.452V114.466C205.452 114.358 205.329 114.27 205.178 114.27H198.621C198.471 114.27 198.348 114.358 198.348 114.466V116.442H194.25V114.466C194.25 114.358 194.128 114.27 193.977 114.27H187.42C187.269 114.27 187.147 114.358 187.147 114.466V116.442H183.049V114.466C183.049 114.358 182.926 114.27 182.775 114.27H176.219C176.068 114.27 175.945 114.358 175.945 114.466V116.442H171.847V114.466C171.847 114.358 171.725 114.27 171.574 114.27H165.017C164.866 114.27 164.744 114.358 164.744 114.466V116.442H160.646V114.466C160.646 114.358 160.523 114.27 160.373 114.27H153.816C153.665 114.27 153.542 114.358 153.542 114.466V116.442H149.444V114.466C149.444 114.358 149.322 114.27 149.171 114.27H142.614C142.463 114.27 142.341 114.358 142.341 114.466V116.442H138.243V114.466C138.243 114.358 138.12 114.27 137.97 114.27H86.6066C86.4557 114.27 86.3334 114.358 86.3334 114.466V116.442H82.2353V114.466C82.2353 114.358 82.113 114.27 81.9621 114.27H75.4051C75.2542 114.27 75.1319 114.358 75.1319 114.466V116.442H71.0338V114.466C71.0338 114.358 70.9115 114.27 70.7606 114.27H64.2036C64.0528 114.27 63.9304 114.358 63.9304 114.466V116.442H59.8324V114.466C59.8324 114.358 59.71 114.27 59.5591 114.27H53.0022C52.8513 114.27 52.729 114.358 52.729 114.466V116.442H48.6308V114.466C48.6308 114.358 48.5085 114.27 48.3576 114.27H41.8007C41.6498 114.27 41.5275 114.358 41.5275 114.466V116.442H37.4294V114.466C37.4294 114.358 37.3071 114.27 37.1562 114.27H30.5992C30.4483 114.27 30.326 114.358 30.326 114.466V116.442H26.2279V114.466C26.2279 114.358 26.1056 114.27 25.9547 114.27H19.3977C19.2468 114.27 19.1245 114.358 19.1245 114.466V116.442H6.55697C2.93566 116.442 0 118.552 0 121.155V123.286C0 125.89 2.93565 128 6.55697 128H224.576C228.197 128 231.133 125.89 231.133 123.286V121.155C231.133 118.552 228.197 116.442 224.576 116.442Z" fill="#3F3D56"/>
<path d="M93.3331 57.7777H36.8887C36.7708 57.7777 36.6577 57.7309 36.5744 57.6476C36.491 57.5642 36.4442 57.4512 36.4442 57.3333C36.4442 57.2154 36.491 57.1024 36.5744 57.019C36.6577 56.9357 36.7708 56.8889 36.8887 56.8889H93.3331C93.451 56.8889 93.564 56.9357 93.6474 57.019C93.7307 57.1024 93.7775 57.2154 93.7775 57.3333C93.7775 57.4512 93.7307 57.5642 93.6474 57.6476C93.564 57.7309 93.451 57.7777 93.3331 57.7777Z" fill="#F2F2F2"/>
<path d="M93.3331 67.5556H36.8887C36.7708 67.5556 36.6577 67.5088 36.5744 67.4254C36.491 67.3421 36.4442 67.229 36.4442 67.1111C36.4442 66.9933 36.491 66.8802 36.5744 66.7969C36.6577 66.7135 36.7708 66.6667 36.8887 66.6667H93.3331C93.451 66.6667 93.564 66.7135 93.6474 66.7969C93.7307 66.8802 93.7775 66.9933 93.7775 67.1111C93.7775 67.229 93.7307 67.3421 93.6474 67.4254C93.564 67.5088 93.451 67.5556 93.3331 67.5556Z" fill="#F2F2F2"/>
<path d="M93.3331 77.3333H36.8886C36.8302 77.3335 36.7722 77.3222 36.7182 77.2999C36.6641 77.2776 36.6149 77.2449 36.5735 77.2036C36.5321 77.1624 36.4993 77.1133 36.4768 77.0593C36.4544 77.0053 36.4429 76.9474 36.4429 76.8889C36.4429 76.8304 36.4544 76.7725 36.4768 76.7185C36.4993 76.6645 36.5321 76.6155 36.5735 76.5742C36.6149 76.5329 36.6641 76.5002 36.7182 76.4779C36.7722 76.4557 36.8302 76.4443 36.8886 76.4445H93.3331C93.3916 76.4443 93.4495 76.4557 93.5036 76.4779C93.5576 76.5002 93.6068 76.5329 93.6482 76.5742C93.6896 76.6155 93.7225 76.6645 93.7449 76.7185C93.7673 76.7725 93.7789 76.8304 93.7789 76.8889C93.7789 76.9474 93.7673 77.0053 93.7449 77.0593C93.7225 77.1133 93.6896 77.1624 93.6482 77.2036C93.6068 77.2449 93.5576 77.2776 93.5036 77.2999C93.4495 77.3222 93.3916 77.3335 93.3331 77.3333Z" fill="#F2F2F2"/>
<path d="M189.111 32.2222H119.333C118.597 32.2222 118 32.8192 118 33.5556V100.667C118 101.403 118.597 102 119.333 102H189.111C189.847 102 190.444 101.403 190.444 100.667V33.5556C190.444 32.8192 189.847 32.2222 189.111 32.2222Z" fill="white"/>
<path d="M132.506 69.1508C132.745 64.9245 134.478 60.9204 137.394 57.8525C140.311 54.7846 144.222 52.8523 148.431 52.4C152.64 51.9477 156.872 53.0049 160.374 55.3831C163.876 57.7613 166.42 61.3059 167.551 65.3849C167.767 65.3772 167.984 65.3685 168.202 65.3685C168.947 65.3756 169.685 65.5013 170.391 65.7408C179.275 68.6583 176.936 81.9233 167.584 81.9233H144.602C142.976 81.9279 141.367 81.6044 139.869 80.9723C138.372 80.3402 137.017 79.4124 135.887 78.2445C134.756 77.0766 133.873 75.6925 133.29 74.1752C132.707 72.658 132.436 71.0386 132.494 69.4142C132.497 69.3265 132.501 69.2387 132.506 69.1508Z" fill="#6C63FF"/>
<path d="M153.454 68.8726V61.5618H149.518V68.8726H146.375L148.93 73.2993L151.486 77.7256L154.042 73.2993L156.597 68.8726H153.454Z" fill="white"/>
</svg>
