<svg width="178" height="142" viewBox="0 0 178 142" fill="none" xmlns="http://www.w3.org/2000/svg">
<path d="M165.914 43.119C166.805 41.5211 166.541 39.6726 165.324 38.9903C164.107 38.308 162.397 39.0503 161.506 40.6482C160.615 42.2461 160.879 44.0946 162.097 44.7768C163.314 45.4591 165.023 44.7169 165.914 43.119Z" fill="#3F3D56"/>
<path d="M167.885 39.5825C168.776 37.9846 168.512 36.1362 167.295 35.4539C166.077 34.7716 164.368 35.5138 163.477 37.1117C162.586 38.7096 162.85 40.5581 164.067 41.2404C165.285 41.9227 166.994 41.1804 167.885 39.5825Z" fill="#3F3D56"/>
<path d="M169.858 36.0473C170.75 34.4494 170.485 32.6009 169.268 31.9186C168.051 31.2363 166.341 31.9786 165.45 33.5765C164.559 35.1744 164.823 37.0228 166.041 37.7051C167.258 38.3874 168.967 37.6452 169.858 36.0473Z" fill="#3F3D56"/>
<path d="M171.829 32.5085C172.721 30.9105 172.456 29.0621 171.239 28.3798C170.022 27.6975 168.312 28.4397 167.421 30.0376C166.53 31.6356 166.795 33.484 168.012 34.1663C169.229 34.8486 170.938 34.1064 171.829 32.5085Z" fill="#3F3D56"/>
<path d="M173.799 28.974C174.691 27.3761 174.426 25.5276 173.209 24.8454C171.992 24.1631 170.282 24.9053 169.391 26.5032C168.5 28.1011 168.764 29.9496 169.982 30.6319C171.199 31.3142 172.908 30.5719 173.799 28.974Z" fill="#3F3D56"/>
<path d="M175.773 25.4376C176.664 23.8397 176.4 21.9912 175.182 21.3089C173.965 20.6266 172.256 21.3689 171.365 22.9668C170.474 24.5647 170.738 26.4132 171.955 27.0955C173.173 27.7777 174.882 27.0355 175.773 25.4376Z" fill="#3F3D56"/>
<path d="M112.481 142L66.5908 141.41L66.725 140.231L68.9442 120.767H109.245L112.211 140.231L112.437 141.705L112.481 142Z" fill="#D0D2D5"/>
<path opacity="0.1" d="M112.437 141.705H89.5361L66.5908 141.41L66.725 140.231H112.211L112.437 141.705Z" fill="black"/>
<path d="M119.835 140.525H58.9423V142H119.835V140.525Z" fill="#D0D2D5"/>
<path d="M177.933 3.85977C177.938 2.84151 177.539 1.86292 176.825 1.13914C176.11 0.415355 175.138 0.00561693 174.123 0H4.06664C3.56351 0.00247251 3.06579 0.104271 2.6019 0.299582C2.13801 0.494893 1.71704 0.779891 1.36302 1.13831C1.009 1.49672 0.72887 1.92153 0.538617 2.38848C0.348364 2.85543 0.251718 3.35538 0.254197 3.85977V107.196H177.933V3.85977Z" fill="#444053"/>
<path d="M0.254169 106.167V118.273C0.25262 118.776 0.350106 119.274 0.541035 119.739C0.731963 120.204 1.01258 120.626 1.36678 120.982C1.72098 121.338 2.14181 121.62 2.60511 121.813C3.06841 122.006 3.56507 122.105 4.06661 122.104H174.123C175.133 122.104 176.102 121.702 176.817 120.985C177.531 120.269 177.933 119.298 177.933 118.285V106.167H0.254169Z" fill="#D0D2D5"/>
<path opacity="0.1" d="M171.461 6.48804H7.60852V99.3844H171.461V6.48804Z" fill="#6C63FF"/>
<path d="M89.976 117.501C90.5777 117.502 91.1716 117.365 91.7129 117.102C92.2543 116.839 92.729 116.456 93.1013 115.982V115.982C93.2136 115.837 93.3166 115.685 93.4096 115.527L91.2303 115.168L93.5837 115.184C93.8106 114.692 93.9343 114.158 93.9473 113.615C93.9603 113.073 93.8621 112.533 93.659 112.03L90.4985 113.682L93.4142 111.535C93.1466 111.053 92.7822 110.633 92.344 110.3C91.9058 109.967 91.4034 109.729 90.8686 109.601C90.3339 109.473 89.7785 109.458 89.2375 109.556C88.6966 109.654 88.1819 109.864 87.7261 110.173C87.2703 110.481 86.8834 110.881 86.5898 111.347C86.2962 111.813 86.1023 112.335 86.0204 112.88C85.9386 113.425 85.9705 113.981 86.1143 114.513C86.258 115.045 86.5104 115.541 86.8555 115.97V115.97C87.2258 116.446 87.6992 116.831 88.2398 117.096C88.7804 117.361 89.3741 117.5 89.976 117.501Z" fill="#6C63FF"/>
<path opacity="0.1" d="M93.9484 122.092L112.255 140.525L109.448 122.092H93.9484Z" fill="black"/>
<path d="M138.662 19.1384H12.1692V86.4745H138.662V19.1384Z" fill="white"/>
<path opacity="0.1" d="M54.5063 36.6914H19.2247V38.5246H54.5063V36.6914Z" fill="#6C63FF"/>
<path opacity="0.1" d="M25.7598 26.9972H22.3616V36.6914H25.7598V26.9972Z" fill="#6C63FF"/>
<path opacity="0.1" d="M30.7255 26.9972H27.3273V36.6914H30.7255V26.9972Z" fill="#6C63FF"/>
<path opacity="0.1" d="M35.691 26.9972H32.2927V36.6914H35.691V26.9972Z" fill="#6C63FF"/>
<path opacity="0.1" d="M40.6568 26.9972H37.2585V36.6914H40.6568V26.9972Z" fill="#6C63FF"/>
<path opacity="0.1" d="M45.6223 26.9972H42.224V36.6914H45.6223V26.9972Z" fill="#6C63FF"/>
<path opacity="0.1" d="M50.588 26.9972H47.1897V36.6914H50.588V26.9972Z" fill="#6C63FF"/>
<path opacity="0.1" d="M25.7598 28.8327H22.3616V29.8802H25.7598V28.8327Z" fill="#6C63FF"/>
<path opacity="0.1" d="M30.7255 28.8327H27.3273V29.8802H30.7255V28.8327Z" fill="#6C63FF"/>
<path opacity="0.1" d="M35.691 28.8327H32.2927V29.8802H35.691V28.8327Z" fill="#6C63FF"/>
<path opacity="0.1" d="M40.6568 28.8327H37.2585V29.8802H40.6568V28.8327Z" fill="#6C63FF"/>
<path opacity="0.1" d="M45.6223 28.8327H42.224V29.8802H45.6223V28.8327Z" fill="#6C63FF"/>
<path opacity="0.1" d="M50.588 28.8327H47.1897V29.8802H50.588V28.8327Z" fill="#6C63FF"/>
<path opacity="0.1" d="M25.7598 33.549H22.3616V34.5965H25.7598V33.549Z" fill="#6C63FF"/>
<path opacity="0.1" d="M30.7255 33.549H27.3273V34.5965H30.7255V33.549Z" fill="#6C63FF"/>
<path opacity="0.1" d="M35.691 33.549H32.2927V34.5965H35.691V33.549Z" fill="#6C63FF"/>
<path opacity="0.1" d="M40.6568 33.549H37.2585V34.5965H40.6568V33.549Z" fill="#6C63FF"/>
<path opacity="0.1" d="M45.6223 33.549H42.224V34.5965H45.6223V33.549Z" fill="#6C63FF"/>
<path opacity="0.1" d="M50.588 33.549H47.1897V34.5965H50.588V33.549Z" fill="#6C63FF"/>
<path opacity="0.1" d="M131.866 41.4076H96.5844V43.2408H131.866V41.4076Z" fill="#6C63FF"/>
<path opacity="0.1" d="M103.119 31.7134H99.7212V41.4077H103.119V31.7134Z" fill="#6C63FF"/>
<path opacity="0.1" d="M108.085 31.7134H104.687V41.4077H108.085V31.7134Z" fill="#6C63FF"/>
<path opacity="0.1" d="M113.051 31.7134H109.653V41.4077H113.051V31.7134Z" fill="#6C63FF"/>
<path opacity="0.1" d="M118.016 31.7134H114.618V41.4077H118.016V31.7134Z" fill="#6C63FF"/>
<path opacity="0.1" d="M122.982 31.7134H119.584V41.4077H122.982V31.7134Z" fill="#6C63FF"/>
<path opacity="0.1" d="M127.947 31.7134H124.549V41.4077H127.947V31.7134Z" fill="#6C63FF"/>
<path opacity="0.1" d="M103.119 33.549H99.7212V34.5965H103.119V33.549Z" fill="#6C63FF"/>
<path opacity="0.1" d="M108.085 33.549H104.687V34.5965H108.085V33.549Z" fill="#6C63FF"/>
<path opacity="0.1" d="M113.051 33.549H109.653V34.5965H113.051V33.549Z" fill="#6C63FF"/>
<path opacity="0.1" d="M118.016 33.549H114.618V34.5965H118.016V33.549Z" fill="#6C63FF"/>
<path opacity="0.1" d="M122.982 33.549H119.584V34.5965H122.982V33.549Z" fill="#6C63FF"/>
<path opacity="0.1" d="M127.947 33.549H124.549V34.5965H127.947V33.549Z" fill="#6C63FF"/>
<path opacity="0.1" d="M103.119 38.2651H99.7212V39.3127H103.119V38.2651Z" fill="#6C63FF"/>
<path opacity="0.1" d="M108.085 38.2651H104.687V39.3127H108.085V38.2651Z" fill="#6C63FF"/>
<path opacity="0.1" d="M113.051 38.2651H109.653V39.3127H113.051V38.2651Z" fill="#6C63FF"/>
<path opacity="0.1" d="M118.016 38.2651H114.618V39.3127H118.016V38.2651Z" fill="#6C63FF"/>
<path opacity="0.1" d="M122.982 38.2651H119.584V39.3127H122.982V38.2651Z" fill="#6C63FF"/>
<path opacity="0.1" d="M127.947 38.2651H124.549V39.3127H127.947V38.2651Z" fill="#6C63FF"/>
<path opacity="0.1" d="M131.866 54.7706H96.5844V56.6037H131.866V54.7706Z" fill="#6C63FF"/>
<path opacity="0.1" d="M103.119 45.0763H99.7212V54.7706H103.119V45.0763Z" fill="#6C63FF"/>
<path opacity="0.1" d="M108.085 45.0763H104.687V54.7706H108.085V45.0763Z" fill="#6C63FF"/>
<path opacity="0.1" d="M113.051 45.0763H109.653V54.7706H113.051V45.0763Z" fill="#6C63FF"/>
<path opacity="0.1" d="M118.016 45.0763H114.618V54.7706H118.016V45.0763Z" fill="#6C63FF"/>
<path opacity="0.1" d="M122.982 45.0763H119.584V54.7706H122.982V45.0763Z" fill="#6C63FF"/>
<path opacity="0.1" d="M127.947 45.0763H124.549V54.7706H127.947V45.0763Z" fill="#6C63FF"/>
<path opacity="0.1" d="M103.119 46.9095H99.7212V47.9571H103.119V46.9095Z" fill="#6C63FF"/>
<path opacity="0.1" d="M108.085 46.9095H104.687V47.9571H108.085V46.9095Z" fill="#6C63FF"/>
<path opacity="0.1" d="M113.051 46.9095H109.653V47.9571H113.051V46.9095Z" fill="#6C63FF"/>
<path opacity="0.1" d="M118.016 46.9095H114.618V47.9571H118.016V46.9095Z" fill="#6C63FF"/>
<path opacity="0.1" d="M122.982 46.9095H119.584V47.9571H122.982V46.9095Z" fill="#6C63FF"/>
<path opacity="0.1" d="M127.947 46.9095H124.549V47.9571H127.947V46.9095Z" fill="#6C63FF"/>
<path opacity="0.1" d="M103.119 51.6257H99.7212V52.6732H103.119V51.6257Z" fill="#6C63FF"/>
<path opacity="0.1" d="M108.085 51.6257H104.687V52.6732H108.085V51.6257Z" fill="#6C63FF"/>
<path opacity="0.1" d="M113.051 51.6257H109.653V52.6732H113.051V51.6257Z" fill="#6C63FF"/>
<path opacity="0.1" d="M118.016 51.6257H114.618V52.6732H118.016V51.6257Z" fill="#6C63FF"/>
<path opacity="0.1" d="M122.982 51.6257H119.584V52.6732H122.982V51.6257Z" fill="#6C63FF"/>
<path opacity="0.1" d="M127.947 51.6257H124.549V52.6732H127.947V51.6257Z" fill="#6C63FF"/>
<path opacity="0.1" d="M40.8637 57.4247C40.5996 57.0878 40.359 56.7331 40.1436 56.3631L45.2245 55.5279L39.72 55.5727C39.1931 54.423 38.9057 53.1777 38.8754 51.9128C38.845 50.648 39.0724 49.3902 39.5435 48.2165L46.9142 52.0503L40.1177 47.0416C40.7527 45.9357 41.6083 44.973 42.631 44.2135C43.6538 43.454 44.8217 42.914 46.062 42.6272C47.3022 42.3404 48.5881 42.3131 49.8393 42.5467C51.0906 42.7804 52.2803 43.2702 53.3343 43.9855C54.3883 44.7008 55.284 45.6262 55.9653 46.704C56.6466 47.7818 57.0989 48.9888 57.2941 50.2497C57.4893 51.5105 57.4232 52.7982 57.0998 54.0323C56.7764 55.2665 56.2027 56.4205 55.4145 57.4224C55.8279 57.9456 56.1837 58.5119 56.4759 59.1116L49.8865 62.5444L56.916 60.1851C57.4102 61.6475 57.5326 63.2105 57.2721 64.7323C57.0115 66.2541 56.3763 67.6867 55.4239 68.9002C56.4986 70.2696 57.1673 71.9144 57.3534 73.6468C57.5395 75.3791 57.2356 77.129 56.4764 78.6964C55.7172 80.2637 54.5333 81.5852 53.0602 82.5098C51.5871 83.4343 49.8842 83.9247 48.1462 83.9247C46.4082 83.9247 44.7053 83.4343 43.2321 82.5098C41.759 81.5852 40.5752 80.2637 39.816 78.6964C39.0568 77.129 38.7528 75.3791 38.939 73.6468C39.1251 71.9144 39.7937 70.2696 40.8684 68.9002C39.5849 67.264 38.8871 65.2429 38.8871 63.1613C38.8871 61.0797 39.5849 59.0586 40.8684 57.4224L40.8637 57.4247Z" fill="#6C63FF"/>
<path opacity="0.1" d="M57.401 63.1649C57.4038 65.2466 56.7056 67.2683 55.4195 68.9026C56.4942 70.272 57.1628 71.9168 57.3489 73.6492C57.535 75.3815 57.2311 77.1314 56.4719 78.6987C55.7127 80.2661 54.5289 81.5876 53.0557 82.5122C51.5826 83.4368 49.8797 83.9271 48.1417 83.9271C46.4037 83.9271 44.7008 83.4368 43.2277 82.5122C41.7546 81.5876 40.5707 80.2661 39.8115 78.6987C39.0523 77.1314 38.7484 75.3815 38.9345 73.6492C39.1206 71.9168 39.7892 70.272 40.8639 68.9026C39.6237 67.3243 57.401 62.1221 57.401 63.1649Z" fill="#6C63FF"/>
<path opacity="0.2" d="M49.6278 86.3966C49.6443 86.4226 49.656 86.4485 49.6725 86.4745H46.5284C46.5449 86.4485 46.5566 86.4226 46.5731 86.3966C46.3032 85.9244 46.1635 85.3885 46.1683 84.8442C46.1679 84.4718 46.2324 84.1021 46.359 83.7519C46.359 83.7519 46.359 83.7519 46.359 83.7519C46.5331 83.7802 46.7496 83.8109 46.9991 83.8368C47.7284 83.9099 48.4631 83.9099 49.1924 83.8368C49.3995 83.8156 49.6184 83.7849 49.8396 83.7519C49.8399 83.7574 49.8399 83.7629 49.8396 83.7684C49.9636 84.1134 50.0265 84.4775 50.0255 84.8442C50.0325 85.3879 49.8953 85.9237 49.6278 86.3966V86.3966Z" fill="#3F3D56"/>
<path opacity="0.1" d="M38.3293 86.4791H20.8438C20.8038 86.3777 20.7685 86.2715 20.7379 86.1677C20.1214 84.1798 20.1935 82.0413 20.9426 80.0996C19.2338 78.9163 17.9715 77.1914 17.3586 75.2021C16.7457 73.2128 16.8177 71.0747 17.5632 69.1314C17.2115 68.8868 16.8766 68.6188 16.5607 68.3292L21.1686 66.0266L15.9324 67.6922C15.0897 66.7497 14.4479 65.6445 14.0465 64.4444C13.6451 63.2444 13.4924 61.9748 13.5978 60.7135L21.7687 62.1928L13.8002 59.4182C14.0819 58.1739 14.6165 57.0011 15.3705 55.9731C16.1245 54.9451 17.0819 54.0839 18.1827 53.4434C19.2836 52.8029 20.5043 52.3968 21.7687 52.2504C23.0332 52.1041 24.3141 52.2206 25.5316 52.5927C26.7491 52.9648 27.877 53.5845 28.8449 54.4132C29.8128 55.2419 30.5999 56.2617 31.1571 57.4089C31.7143 58.5562 32.0296 59.8063 32.0833 61.0812C32.137 62.3561 31.9279 63.6284 31.4692 64.8186C32.0166 65.1989 32.5222 65.6363 32.9777 66.1233L27.6874 71.3562L33.7096 67.0151C34.6122 68.2669 35.189 69.7246 35.3879 71.2563C35.5868 72.7879 35.4015 74.3452 34.8486 75.7869C36.5156 76.9421 37.7586 78.6134 38.3873 80.5446C39.016 82.4759 38.9956 84.5606 38.3293 86.4791V86.4791Z" fill="#6C63FF"/>
<path opacity="0.1" d="M38.3291 86.4792H20.8437C20.8036 86.3777 20.7683 86.2716 20.7378 86.1678C20.1212 84.1798 20.1934 82.0413 20.9425 80.0997C19.2951 78.9555 34.7473 68.7257 35.0627 69.7189C35.6768 71.708 35.6046 73.8464 34.8579 75.7893C36.5227 76.9457 37.7635 78.6172 38.3904 80.5478C39.0174 82.4785 38.9958 84.562 38.3291 86.4792V86.4792Z" fill="#6C63FF"/>
<path opacity="0.1" d="M117.508 73.902C116.446 75.6908 114.812 77.0675 112.872 77.809C112.955 78.4718 112.968 79.1416 112.912 79.8073L105.494 79.3614L112.738 80.9492C112.259 83.168 110.988 85.1348 109.163 86.4793H99.067V86.7412H88.7899C88.8111 86.6515 88.8323 86.5642 88.8558 86.4793C89.2335 85.0562 89.9423 83.7431 90.9241 82.6477C91.9058 81.5523 93.1326 80.7058 94.5039 80.1777C94.2413 78.112 94.6786 76.0179 95.7455 74.2312C96.8124 72.4446 98.4471 71.069 100.387 70.3253C100.332 69.9006 100.306 69.4726 100.31 69.0443L105.099 70.9317L100.364 68.143C100.499 66.8864 100.888 65.6705 101.508 64.5696C102.127 63.4688 102.964 62.506 103.967 61.74L108.33 68.8178L105.061 61.0322C106.842 60.0392 108.9 59.663 110.915 59.9618C112.931 60.2606 114.792 61.2179 116.21 62.685C117.628 64.1522 118.524 66.0474 118.758 68.0767C118.992 70.106 118.552 72.1561 117.506 73.9091L117.508 73.902Z" fill="#6C63FF"/>
<path opacity="0.1" d="M111.632 83.7542C111.001 84.8208 110.161 85.7478 109.163 86.4792H99.067V86.741H88.7899C88.8111 86.6514 88.8323 86.5641 88.8558 86.4792C89.2335 85.056 89.9423 83.7429 90.9241 82.6475C91.9058 81.5522 93.1326 80.7057 94.5039 80.1775C94.4168 79.5004 96.4124 79.5925 99.0694 80.0407C104.263 80.9136 111.985 83.162 111.632 83.7542Z" fill="#6C63FF"/>
<path d="M67.878 58.9842C67.878 58.9842 69.137 65.8662 66.313 68.1099C63.4889 70.3536 68.6993 83.8179 77.3549 82.249C86.0106 80.6801 89.5171 69.3815 89.5171 69.3815C89.5171 69.3815 80.8614 67.5885 84.0691 58.4628L67.878 58.9842Z" fill="#EFB7B9"/>
<path opacity="0.1" d="M67.878 58.9842C67.878 58.9842 69.137 65.8662 66.313 68.1099C63.4889 70.3536 68.6993 83.8179 77.3549 82.249C86.0106 80.6801 89.5171 69.3815 89.5171 69.3815C89.5171 69.3815 80.8614 67.5885 84.0691 58.4628L67.878 58.9842Z" fill="black"/>
<path d="M75.5265 64.033C83.4379 64.033 89.8514 57.6034 89.8514 49.6721C89.8514 41.7408 83.4379 35.3112 75.5265 35.3112C67.615 35.3112 61.2015 41.7408 61.2015 49.6721C61.2015 57.6034 67.615 64.033 75.5265 64.033Z" fill="#EFB7B9"/>
<path d="M99.067 76.9737V86.7363H51.7645V77.4196C51.765 76.2378 52.1125 75.0823 52.7636 74.0972C53.4148 73.1121 54.3409 72.3409 55.4264 71.88L56.7842 71.302C60.2154 69.8369 64.3832 68.0179 65.7458 67.2605C65.8951 67.186 66.0356 67.095 66.1647 66.9892C66.9107 66.2413 66.7625 67.2134 66.7625 67.2134C66.7625 67.2134 66.7413 67.3974 66.7272 67.7182C66.6472 69.9147 66.9625 78.5544 77.0584 77.8348C86.9096 77.127 87.3426 70.4644 87.2532 68.5039C87.2476 68.3223 87.2319 68.1411 87.2061 67.9613C87.2061 67.9093 88.0533 68.1972 89.2018 68.6124C91.2657 69.3744 94.2991 70.6013 95.1158 71.1793C95.3699 71.3562 95.6782 71.545 96.0124 71.7314C96.9426 72.2519 97.7169 73.0126 98.2549 73.9344C98.7929 74.8562 99.0749 75.9057 99.0718 76.9737H99.067Z" fill="#6C63FF"/>
<path opacity="0.1" d="M89.1993 68.6124C88.3662 72.4863 85.7493 79.7435 76.31 79.9369C66.2588 80.1351 65.6798 70.1129 65.741 67.27C65.8915 67.1953 66.0328 67.1035 66.1623 66.9963C66.9083 66.2484 66.76 67.2204 66.76 67.2204C66.76 67.2204 65.4916 78.6653 77.056 77.8372C88.6204 77.0091 87.2037 67.9636 87.2037 67.9636C87.2037 67.9093 88.0509 68.1877 89.1993 68.6124Z" fill="black"/>
<path d="M58.5704 50.3824C59.5117 50.0757 60.6343 50.5947 61.1591 51.3261C61.6839 52.0575 61.7568 52.9422 61.8203 53.7892C62.444 53.9213 62.7946 53.2135 62.8511 52.6827C63.0865 50.5098 63.0982 48.2968 63.8254 46.2018C64.5526 44.1067 66.1411 42.0777 68.5839 41.2709C69.4146 40.9819 70.3024 40.897 71.1726 41.0231C71.688 41.1104 72.1751 41.2898 72.6905 41.3747C74.472 41.6696 76.4135 40.8226 78.0868 41.4124C79.134 41.7828 79.8094 42.6393 80.2895 43.498C80.5035 43.9591 80.7931 44.381 81.1462 44.7461C81.8522 45.3831 82.9724 45.5506 83.989 45.7511C85.0057 45.9517 86.1212 46.2961 86.5565 47.0841C86.9495 47.7919 86.6601 48.6177 86.5283 49.3915C86.3271 50.6108 86.5313 51.8626 87.1096 52.954C87.2978 53.3126 87.6791 53.7184 88.1286 53.6028C88.3332 53.5336 88.5061 53.3929 88.6157 53.2064C89.7924 51.555 89.7548 49.4127 91.2209 47.9382C91.7128 47.4451 92.3458 47.0582 92.8235 46.5556C93.1851 46.1896 93.4503 45.7393 93.5953 45.2452C93.7403 44.751 93.7605 44.2285 93.6543 43.7245C93.3907 42.5897 92.4776 41.6436 91.7551 40.6575C90.8054 39.3937 90.1137 37.9546 89.7195 36.4226C89.6499 36.2451 89.6499 36.0479 89.7195 35.8705C89.8577 35.6899 90.0357 35.5438 90.2395 35.4435C90.6389 35.178 90.9279 34.7755 91.0522 34.3116C91.1766 33.8477 91.1278 33.3542 90.915 32.9238C90.5055 32.0674 89.5853 31.4327 88.5757 31.0505C87.5661 30.6683 86.4577 30.5055 85.361 30.3427C84.6409 30.4489 83.796 30.036 83.5725 29.458C83.4736 29.2008 83.4736 28.9224 83.3724 28.6653C83.1771 28.1722 82.6147 27.823 82.0098 27.7027C81.3947 27.6016 80.7645 27.6461 80.1695 27.8325C79.4917 28.0236 78.7057 28.3043 78.115 27.9787C77.8044 27.8018 77.6302 27.4809 77.296 27.337C76.6183 27.0468 75.9029 27.6319 75.4134 28.1156C74.9384 28.6194 74.3571 29.0104 73.7119 29.2598C73.0318 29.4957 72.194 29.4957 71.608 29.1206C71.1373 28.821 70.902 28.3397 70.5278 27.9575C69.9135 27.3276 68.9416 26.9855 67.972 26.9076C66.9996 26.8564 66.0253 26.9631 65.0868 27.2238C63.2952 27.6589 61.5835 28.3755 60.0153 29.3471C59.2316 29.8402 58.4809 30.4159 58.0714 31.159C57.7806 31.7385 57.6306 32.3788 57.6337 33.0276C57.5608 35.0589 58.2338 37.2011 59.9871 38.6238C58.9186 39.072 58.5562 40.1691 58.3068 41.1435C57.9067 42.6959 57.5043 44.2766 57.6549 45.862C57.7302 46.6807 57.9538 47.4994 57.8337 48.3133C57.7773 48.7073 57.6408 49.0942 57.6737 49.4929C57.7174 49.7141 57.8262 49.917 57.986 50.0755C58.1458 50.2341 58.3493 50.3409 58.5704 50.3824V50.3824Z" fill="#454B69"/>
<g opacity="0.1">
<path opacity="0.1" d="M93.4473 43.111C93.2923 43.4473 93.0832 43.7557 92.8284 44.0241C92.3577 44.5266 91.7176 44.9135 91.2257 45.409C89.7596 46.8811 89.7902 49.0304 88.6206 50.6772C88.5108 50.8631 88.3379 51.003 88.1334 51.0712C87.6839 51.1868 87.3027 50.781 87.1144 50.4224C86.8858 49.9863 86.7141 49.5224 86.6038 49.0422C86.5786 49.1618 86.5551 49.2821 86.5332 49.4032C86.3319 50.6225 86.5362 51.8743 87.1144 52.9657C87.3027 53.3243 87.6839 53.7301 88.1334 53.6145C88.338 53.5453 88.5109 53.4046 88.6206 53.2181C89.7973 51.5667 89.7596 49.4244 91.2257 47.9499C91.7176 47.4568 92.3506 47.0699 92.8284 46.5674C93.1899 46.2014 93.4551 45.7511 93.6001 45.2569C93.7451 44.7627 93.7654 44.2402 93.6591 43.7362C93.6089 43.5214 93.538 43.312 93.4473 43.111V43.111Z" fill="black"/>
<path opacity="0.1" d="M90.249 32.9237C90.0448 33.0224 89.8666 33.1678 89.7289 33.3483C89.6594 33.5258 89.6594 33.723 89.7289 33.9004C89.8646 34.4352 90.0384 34.9595 90.249 35.4693V35.4693C90.6531 35.2016 90.9445 34.7939 91.0674 34.3241C91.1903 33.8544 91.136 33.3558 90.915 32.9237C90.8487 32.7831 90.77 32.6489 90.6796 32.5226C90.557 32.6772 90.4118 32.8124 90.249 32.9237V32.9237Z" fill="black"/>
<path opacity="0.1" d="M59.9849 36.1039C58.7712 35.0979 57.9709 33.678 57.7374 32.1167C57.6766 32.4278 57.642 32.7435 57.6339 33.0604C57.5583 34.5595 57.9534 36.0447 58.7635 37.3071C59.0098 36.7695 59.4444 36.3413 59.9849 36.1039Z" fill="black"/>
<path opacity="0.1" d="M86.5331 46.8599C86.6649 46.0861 86.9543 45.2627 86.5613 44.5526C86.1259 43.7646 85.0128 43.4178 83.9938 43.2196C82.9748 43.0214 81.8617 42.8515 81.1509 42.2145C80.7979 41.8494 80.5083 41.4276 80.2943 40.9665C79.8237 40.1077 79.1388 39.2513 78.0916 38.8809C76.4183 38.2911 74.4768 39.138 72.6953 38.8431C72.1799 38.7582 71.6928 38.5789 71.1774 38.4916C70.3081 38.3617 69.4204 38.4426 68.5887 38.7275C66.1459 39.5344 64.5574 41.5587 63.8302 43.6584C63.1031 45.7582 63.0866 47.9664 62.8559 50.1393C62.7995 50.6702 62.4488 51.378 61.8252 51.2458C61.7616 50.3989 61.684 49.5141 61.1639 48.7828C60.6438 48.0514 59.533 47.53 58.5752 47.839C58.2852 47.7734 58.0282 47.606 57.8504 47.3672C57.8831 47.6812 57.8784 47.998 57.8362 48.3109C57.7798 48.7049 57.6433 49.0918 57.6762 49.4905C57.7193 49.7118 57.8275 49.915 57.9869 50.0739C58.1463 50.2329 58.3496 50.3403 58.5705 50.3823C59.5118 50.0756 60.6344 50.5947 61.1592 51.326C61.684 52.0574 61.7569 52.9422 61.8205 53.7891C62.4441 53.9212 62.7948 53.2135 62.8512 52.6826C63.0866 50.5097 63.0983 48.2967 63.8255 46.2017C64.5527 44.1067 66.1412 42.0777 68.584 41.2708C69.4147 40.9819 70.3025 40.8969 71.1727 41.0231C71.6881 41.1104 72.1752 41.2897 72.6906 41.3746C74.4721 41.6695 76.4136 40.8226 78.0869 41.4124C79.1341 41.7828 79.8095 42.6392 80.2896 43.498C80.5036 43.9591 80.7932 44.3809 81.1463 44.746C81.8523 45.383 82.9724 45.5505 83.9891 45.7511C85.0057 45.9516 86.0389 46.2725 86.5048 47.0039C86.5166 46.9637 86.5237 46.9118 86.5331 46.8599Z" fill="black"/>
<path opacity="0.1" d="M57.841 45.7887C57.8961 45.148 57.858 44.5026 57.728 43.8729C57.6273 44.5372 57.6052 45.2112 57.6621 45.8807C57.6762 46.0529 57.6998 46.2228 57.7233 46.395C57.7515 46.1921 57.8033 45.9916 57.841 45.7887Z" fill="black"/>
</g>
<path d="M166.314 71.8234H145.134V86.5571H166.314V71.8234Z" fill="white"/>
<path opacity="0.1" d="M164.427 82.9402C164.125 83.4496 163.659 83.8413 163.107 84.0515C163.131 84.2401 163.135 84.4306 163.118 84.62L161 84.4927L163.062 84.9456C162.924 85.5757 162.563 86.1341 162.045 86.5169H159.179V86.5924H156.256C156.256 86.5664 156.256 86.5429 156.275 86.5169C156.338 86.277 156.434 86.0474 156.562 85.8351C156.864 85.3265 157.328 84.9349 157.88 84.7239C157.805 84.1362 157.929 83.5403 158.232 83.0319C158.536 82.5235 159.001 82.1322 159.553 81.921C159.537 81.8007 159.53 81.6792 159.532 81.5577L160.895 82.0956L159.546 81.3029C159.584 80.9446 159.695 80.598 159.872 80.2843C160.049 79.9706 160.288 79.6966 160.574 79.4792L161.815 81.494L160.885 79.2763C161.392 78.9999 161.975 78.8976 162.545 78.9852C163.115 79.0729 163.64 79.3455 164.041 79.7614C164.442 80.1772 164.695 80.7134 164.763 81.2876C164.83 81.8618 164.708 82.4423 164.415 82.9402H164.427Z" fill="#6C63FF"/>
<path opacity="0.1" d="M162.754 85.7502C162.573 86.0536 162.333 86.3169 162.048 86.524H159.179V86.5995H156.256C156.256 86.5736 156.256 86.55 156.275 86.524C156.338 86.2841 156.434 86.0545 156.562 85.8422C156.864 85.3336 157.328 84.942 157.88 84.7309C157.856 84.5398 158.424 84.5658 159.179 84.6932C160.657 84.9433 162.855 85.5826 162.754 85.7502Z" fill="#6C63FF"/>
<path opacity="0.1" d="M145.939 82.9402C146.241 83.4496 146.706 83.8413 147.259 84.0515C147.235 84.2401 147.231 84.4306 147.247 84.62L149.365 84.4927L147.304 84.9456C147.441 85.5757 147.803 86.1341 148.32 86.5169H151.194V86.5924H154.119C154.119 86.5664 154.105 86.5429 154.1 86.5169C154.036 86.2777 153.939 86.0484 153.813 85.8351C153.51 85.3268 153.045 84.9354 152.493 84.7239C152.568 84.1362 152.444 83.5403 152.141 83.0319C151.837 82.5235 151.372 82.1322 150.82 81.921C150.836 81.8006 150.844 81.6792 150.843 81.5577L149.481 82.0956L150.827 81.3029C150.789 80.9446 150.678 80.598 150.501 80.2843C150.324 79.9706 150.085 79.6966 149.798 79.4792L148.558 81.494L149.488 79.2763C148.981 78.9999 148.398 78.8976 147.828 78.9852C147.258 79.0729 146.732 79.3455 146.332 79.7614C145.931 80.1772 145.678 80.7134 145.61 81.2876C145.542 81.8618 145.665 82.4423 145.958 82.9402H145.939Z" fill="#6C63FF"/>
<path opacity="0.1" d="M147.612 85.7502C147.792 86.0536 148.033 86.3169 148.318 86.524H151.192V86.5995H154.117C154.117 86.5736 154.103 86.55 154.098 86.524C154.033 86.2849 153.937 86.0555 153.811 85.8422C153.507 85.3339 153.043 84.9425 152.491 84.7309C152.514 84.5398 151.947 84.5658 151.192 84.6932C149.709 84.9433 147.504 85.5826 147.612 85.7502Z" fill="#6C63FF"/>
<path d="M157.816 75.0698H153.084V80.3545H157.816V75.0698Z" fill="#464353"/>
<path opacity="0.1" d="M157.816 75.0698H153.084V80.3545H157.816V75.0698Z" fill="black"/>
<path d="M151.067 85.1911L150.97 86.5642H152.321L152.406 84.7499L151.067 85.1911Z" fill="#A1616A"/>
<path d="M158.183 85.1911L157.979 86.5642H159.217L159.294 84.7499L158.183 85.1911Z" fill="#A1616A"/>
<path d="M154.265 77.7144C154.265 77.7144 154.218 78.401 154.053 78.5803C153.889 78.7596 155.524 80.3473 156.811 78.7784C156.811 78.7784 156.258 78.3066 156.388 77.7781C156.517 77.2497 154.265 77.7144 154.265 77.7144Z" fill="#A1616A"/>
<path opacity="0.1" d="M154.265 77.7144C154.265 77.7144 154.218 78.401 154.053 78.5803C153.889 78.7596 155.524 80.3473 156.811 78.7784C156.811 78.7784 156.258 78.3066 156.388 77.7781C156.517 77.2497 154.265 77.7144 154.265 77.7144Z" fill="black"/>
<path d="M155.449 78.328C156.756 78.328 157.816 77.2654 157.816 75.9546C157.816 74.6437 156.756 73.5811 155.449 73.5811C154.141 73.5811 153.081 74.6437 153.081 75.9546C153.081 77.2654 154.141 78.328 155.449 78.328Z" fill="#A1616A"/>
<path d="M155.326 79.1867C155.326 79.1867 154.333 79.1702 154.185 78.2618C153.988 78.4323 153.781 78.59 153.564 78.7337C153.467 78.7667 152.519 79.3046 152.34 79.3377C152.165 79.3732 152.003 79.4546 151.869 79.5736C151.635 79.7578 151.444 79.9908 151.309 80.2564C151.174 80.522 151.097 80.8139 151.086 81.1118C151.053 82.1759 150.923 84.2544 150.923 84.2544L150.973 85.007V85.4977C150.973 85.4977 151.853 85.7337 152.385 85.2618C152.385 85.2618 152.385 85.0825 152.484 85.0259C152.582 84.9693 152.597 84.731 152.58 84.6319C152.572 84.4849 152.572 84.3376 152.58 84.1907C152.597 84.2706 152.644 84.3408 152.712 84.3865C152.751 84.5196 152.762 84.6594 152.745 84.797C152.695 84.8938 152.646 85.1226 152.695 85.1722C152.72 85.216 152.731 85.2667 152.725 85.3168C152.719 85.3669 152.697 85.4138 152.662 85.4506C152.573 85.5766 152.501 85.7148 152.451 85.8611C152.451 85.8611 152.401 86.1536 152.352 86.1866C152.296 86.3063 152.258 86.4335 152.239 86.5641H158.122C158.018 86.2653 157.94 85.9583 157.887 85.6464C157.903 85.5001 157.741 84.8938 157.854 84.731C158.02 84.5152 158.112 84.251 158.115 83.9784L158.181 84.6154L158.002 86.0309C158.002 86.0309 159.094 86.3754 159.21 86.1607C159.332 85.7871 159.424 85.4045 159.487 85.0164C159.487 85.0164 159.748 83.8368 159.814 83.674C159.88 83.5112 160.026 80.2389 159.144 79.7647C158.261 79.2905 156.597 78.4742 156.555 78.5143C156.461 78.7526 156.286 78.9503 156.062 79.0731C155.838 79.1959 155.577 79.2361 155.326 79.1867V79.1867Z" fill="#6C63FF"/>
<path opacity="0.1" d="M152.491 82.3858C152.323 82.6269 152.25 82.9222 152.288 83.2139C152.328 83.5028 152.422 83.7815 152.566 84.0349" stroke="black" stroke-miterlimit="10"/>
<path opacity="0.1" d="M158.207 82.61C158.249 82.73 158.282 82.853 158.306 82.978C158.348 83.1343 158.356 83.2979 158.329 83.4575C158.302 83.6172 158.241 83.7691 158.15 83.9029" stroke="black" stroke-miterlimit="10"/>
<path d="M154.39 74.3313C154.575 74.2818 154.772 74.3019 154.943 74.3879C155.111 74.4751 155.288 74.5454 155.47 74.5979C155.592 74.6239 155.705 74.6239 155.842 74.6427C156.069 74.6841 156.279 74.7927 156.444 74.9546C156.609 75.1165 156.723 75.3242 156.769 75.551C156.875 76.1314 156.534 76.7024 156.534 77.2946C156.535 77.6334 156.654 77.9613 156.87 78.2217C157.052 78.3876 157.21 78.5773 157.341 78.7856C157.409 78.9366 157.423 79.1088 157.489 79.2575C157.633 79.5247 157.872 79.7283 158.158 79.8284C158.441 79.9239 158.715 80.0472 158.974 80.1965C159.445 80.5102 159.723 81.1119 160.269 81.2416C160.296 81.2534 160.325 81.2594 160.354 81.2594C160.384 81.2594 160.413 81.2534 160.44 81.2416C160.465 81.2218 160.485 81.1967 160.499 81.1682C160.513 81.1396 160.52 81.1082 160.52 81.0765C160.534 80.961 160.521 80.8439 160.483 80.734C160.445 80.6241 160.383 80.5242 160.301 80.4418C160.167 80.3073 159.972 80.2059 159.93 80.0242C159.887 79.8426 160 79.6869 160.061 79.5217C160.257 78.9862 159.932 78.4034 159.562 77.9693C159.193 77.5352 158.751 77.1058 158.661 76.5537C158.64 76.3674 158.633 76.1797 158.64 75.9922C158.633 75.606 158.566 75.2231 158.442 74.8574C158.383 74.6598 158.287 74.475 158.16 74.3124C158.042 74.1709 157.892 74.0623 157.769 73.9255C157.607 73.7004 157.46 73.4638 157.331 73.2177C157.144 72.9261 156.889 72.6848 156.587 72.5149C156.286 72.3451 155.948 72.2518 155.602 72.2433C154.94 72.2433 154.314 72.5359 153.754 72.8874C153.548 73.0001 153.37 73.1572 153.232 73.3475C152.997 73.7226 153.067 74.2181 152.931 74.6427C152.794 75.0674 152.472 75.3812 152.359 75.7964C152.324 75.9184 152.318 76.0469 152.342 76.1715C152.384 76.303 152.44 76.4296 152.509 76.549C152.634 76.8528 152.705 77.1762 152.719 77.5045C152.754 77.9009 152.771 78.3279 152.564 78.6653C152.403 78.8698 152.203 79.0399 151.975 79.1655C152.206 79.3532 152.5 79.4437 152.797 79.4179C153.244 79.4368 153.761 79.4179 154.039 79.064C154.205 78.8099 154.272 78.5034 154.227 78.2029C154.205 77.8745 154.139 77.5507 154.03 77.2403C153.877 76.8038 153.641 76.3909 153.573 75.9332C153.546 75.7682 153.553 75.5994 153.594 75.4371C153.634 75.2749 153.707 75.1226 153.808 74.9895C153.893 74.8834 154.044 74.8291 154.114 74.7159C154.204 74.5649 154.178 74.4068 154.39 74.3313Z" fill="#464353"/>
<g opacity="0.1">
<path opacity="0.1" d="M152.51 76.5185C152.635 76.8222 152.705 77.1456 152.719 77.474C152.719 77.5778 152.735 77.6839 152.738 77.7901C152.762 77.5596 152.762 77.327 152.738 77.0965C152.723 76.7721 152.652 76.4527 152.528 76.1528C152.461 76.0334 152.405 75.9078 152.361 75.7776C152.326 75.8988 152.321 76.0266 152.345 76.1504C152.387 76.2785 152.442 76.4019 152.51 76.5185V76.5185Z" fill="black"/>
<path opacity="0.1" d="M154.06 78.6936C153.783 79.0452 153.265 79.0664 152.818 79.0499C152.629 79.0505 152.441 79.0218 152.26 78.965C152.171 79.0381 152.074 79.1065 151.98 79.1726C152.211 79.3603 152.505 79.4508 152.801 79.425C153.249 79.4439 153.766 79.425 154.044 79.0711C154.203 78.8351 154.272 78.5493 154.237 78.2666C154.216 78.4219 154.155 78.569 154.06 78.6936Z" fill="black"/>
<path opacity="0.1" d="M159.946 79.6382C159.953 79.6651 159.962 79.6913 159.974 79.7162C160.003 79.65 160.036 79.5815 160.062 79.513C160.118 79.3573 160.134 79.1899 160.109 79.0262C160.101 79.0638 160.091 79.1009 160.078 79.1373C160.017 79.3027 159.906 79.4681 159.946 79.6382Z" fill="black"/>
<path opacity="0.1" d="M156.783 75.6643C156.81 75.5027 156.81 75.3376 156.783 75.176C156.737 74.949 156.624 74.7411 156.459 74.5792C156.293 74.4172 156.083 74.3087 155.856 74.2676C155.731 74.2464 155.607 74.2464 155.484 74.2228C155.302 74.1693 155.126 74.099 154.957 74.0128C154.786 73.9261 154.589 73.9051 154.404 73.9539C154.192 74.0294 154.218 74.1898 154.124 74.3455C154.056 74.4587 153.903 74.5154 153.818 74.6192C153.632 74.8686 153.547 75.1801 153.583 75.4897C153.612 75.3093 153.688 75.1394 153.802 74.9967C153.886 74.8905 154.037 74.8362 154.108 74.723C154.202 74.5649 154.176 74.4068 154.388 74.3313C154.573 74.2818 154.769 74.302 154.941 74.388C155.109 74.4751 155.286 74.5454 155.468 74.5979C155.59 74.6239 155.703 74.6239 155.84 74.6428C156.067 74.6842 156.277 74.7928 156.442 74.9546C156.607 75.1165 156.72 75.3242 156.767 75.5511C156.775 75.5885 156.78 75.6263 156.783 75.6643V75.6643Z" fill="black"/>
<path opacity="0.1" d="M160.447 80.857C160.392 80.8787 160.331 80.8787 160.276 80.857C159.73 80.7273 159.447 80.1256 158.981 79.8119C158.721 79.6645 158.447 79.5413 158.165 79.4438C157.879 79.3447 157.64 79.1419 157.496 78.8752C157.43 78.7219 157.416 78.552 157.348 78.4034C157.217 78.1951 157.059 78.0055 156.877 77.8395C156.681 77.6055 156.563 77.3161 156.539 77.0114C156.524 77.1027 156.517 77.195 156.517 77.2874C156.522 77.6308 156.647 77.9617 156.87 78.2217C157.052 78.3876 157.21 78.5773 157.341 78.7856C157.409 78.9366 157.423 79.1088 157.489 79.2574C157.633 79.5247 157.872 79.7283 158.158 79.8284C158.441 79.9239 158.715 80.0472 158.974 80.1964C159.445 80.5102 159.723 81.1118 160.269 81.2416C160.296 81.2533 160.325 81.2594 160.354 81.2594C160.384 81.2594 160.413 81.2533 160.44 81.2416C160.465 81.2217 160.485 81.1966 160.499 81.168C160.513 81.1394 160.52 81.1082 160.52 81.0764C160.531 80.9874 160.526 80.8972 160.506 80.8098C160.491 80.8305 160.471 80.8468 160.447 80.857V80.857Z" fill="black"/>
</g>
<path opacity="0.1" d="M150.321 72.9062H147.295V77.2402H150.321V72.9062Z" fill="#6C63FF"/>
<path opacity="0.1" d="M149.888 73.5268H147.727V76.6222H149.888V73.5268Z" fill="#6C63FF"/>
<path opacity="0.1" d="M165.232 73.5575H160.261V76.1574H165.232V73.5575Z" fill="#6C63FF"/>
<path opacity="0.1" d="M164.584 73.8972H160.911V75.82H164.584V73.8972Z" fill="#6C63FF"/>
</svg>
