<?xml version="1.0" encoding="UTF-8" standalone="no"?>
<svg
   xmlns:dc="http://purl.org/dc/elements/1.1/"
   xmlns:cc="http://creativecommons.org/ns#"
   xmlns:rdf="http://www.w3.org/1999/02/22-rdf-syntax-ns#"
   xmlns:svg="http://www.w3.org/2000/svg"
   xmlns="http://www.w3.org/2000/svg"
   xmlns:xlink="http://www.w3.org/1999/xlink"
   xmlns:sodipodi="http://sodipodi.sourceforge.net/DTD/sodipodi-0.dtd"
   xmlns:inkscape="http://www.inkscape.org/namespaces/inkscape"
   width="159mm"
   height="79mm"
   viewBox="0 0 159 79"
   version="1.1"
   id="svg8"
   inkscape:version="1.0.1 (3bc2e813f5, 2020-09-07)"
   sodipodi:docname="Logo1 (1).svg">
  <defs
     id="defs2">
    <linearGradient
       inkscape:collect="always"
       id="linearGradient1215">
      <stop
         style="stop-color:#0e2bbd;stop-opacity:1;"
         offset="0"
         id="stop1211" />
      <stop
         style="stop-color:#0e2bbd;stop-opacity:0;"
         offset="1"
         id="stop1213" />
    </linearGradient>
    <linearGradient
       inkscape:collect="always"
       id="linearGradient1207">
      <stop
         style="stop-color:#0e2bbd;stop-opacity:1;"
         offset="0"
         id="stop1203" />
      <stop
         style="stop-color:#0e2bbd;stop-opacity:0;"
         offset="1"
         id="stop1205" />
    </linearGradient>
    <linearGradient
       inkscape:collect="always"
       id="linearGradient1191">
      <stop
         style="stop-color:#000000;stop-opacity:1;"
         offset="0"
         id="stop1187" />
      <stop
         style="stop-color:#000000;stop-opacity:0;"
         offset="1"
         id="stop1189" />
    </linearGradient>
    <linearGradient
       inkscape:collect="always"
       id="linearGradient1183">
      <stop
         style="stop-color:#100d00;stop-opacity:1;"
         offset="0"
         id="stop1179" />
      <stop
         style="stop-color:#100d00;stop-opacity:0;"
         offset="1"
         id="stop1181" />
    </linearGradient>
    <filter
       inkscape:collect="always"
       style="color-interpolation-filters:sRGB"
       id="filter1140"
       x="-0.00027311404"
       width="1.0005462"
       y="-0.0014586271"
       height="1.0029173">
      <feGaussianBlur
         inkscape:collect="always"
         stdDeviation="0.018147825"
         id="feGaussianBlur1142" />
    </filter>
    <linearGradient
       inkscape:collect="always"
       xlink:href="#linearGradient1183"
       id="linearGradient1185"
       x1="141.78062"
       y1="136.8492"
       x2="166.19946"
       y2="136.8492"
       gradientUnits="userSpaceOnUse"
       gradientTransform="translate(0.52916667,-1.0583333)" />
    <linearGradient
       inkscape:collect="always"
       xlink:href="#linearGradient1191"
       id="linearGradient1193"
       x1="141.78062"
       y1="136.8492"
       x2="166.19946"
       y2="136.8492"
       gradientUnits="userSpaceOnUse" />
    <linearGradient
       inkscape:collect="always"
       xlink:href="#linearGradient1207"
       id="linearGradient1209"
       x1="20.398405"
       y1="126.73543"
       x2="179.96021"
       y2="126.73543"
       gradientUnits="userSpaceOnUse"
       gradientTransform="translate(-20.398405,-87.498787)" />
    <linearGradient
       inkscape:collect="always"
       xlink:href="#linearGradient1215"
       id="linearGradient1217"
       x1="23.350981"
       y1="128.11499"
       x2="107.75841"
       y2="128.11499"
       gradientUnits="userSpaceOnUse"
       gradientTransform="translate(-18.810905,-88.557121)" />
    <linearGradient
       inkscape:collect="always"
       xlink:href="#linearGradient1183"
       id="linearGradient877"
       gradientUnits="userSpaceOnUse"
       gradientTransform="translate(0.52916667,-1.0583333)"
       x1="141.78062"
       y1="136.8492"
       x2="166.19946"
       y2="136.8492" />
    <linearGradient
       inkscape:collect="always"
       xlink:href="#linearGradient1183"
       id="linearGradient879"
       gradientUnits="userSpaceOnUse"
       gradientTransform="translate(0.52916667,-1.0583333)"
       x1="141.78062"
       y1="136.8492"
       x2="166.19946"
       y2="136.8492" />
    <linearGradient
       inkscape:collect="always"
       xlink:href="#linearGradient1183"
       id="linearGradient881"
       gradientUnits="userSpaceOnUse"
       gradientTransform="translate(0.52916667,-1.0583333)"
       x1="141.78062"
       y1="136.8492"
       x2="166.19946"
       y2="136.8492" />
    <linearGradient
       inkscape:collect="always"
       xlink:href="#linearGradient1183"
       id="linearGradient883"
       gradientUnits="userSpaceOnUse"
       gradientTransform="translate(0.52916667,-1.0583333)"
       x1="141.78062"
       y1="136.8492"
       x2="166.19946"
       y2="136.8492" />
    <linearGradient
       inkscape:collect="always"
       xlink:href="#linearGradient1183"
       id="linearGradient885"
       gradientUnits="userSpaceOnUse"
       gradientTransform="translate(0.52916667,-1.0583333)"
       x1="141.78062"
       y1="136.8492"
       x2="166.19946"
       y2="136.8492" />
    <linearGradient
       inkscape:collect="always"
       xlink:href="#linearGradient1183"
       id="linearGradient887"
       gradientUnits="userSpaceOnUse"
       gradientTransform="translate(0.52916667,-1.0583333)"
       x1="141.78062"
       y1="136.8492"
       x2="166.19946"
       y2="136.8492" />
    <linearGradient
       inkscape:collect="always"
       xlink:href="#linearGradient1183"
       id="linearGradient889"
       gradientUnits="userSpaceOnUse"
       gradientTransform="translate(0.52916667,-1.0583333)"
       x1="141.78062"
       y1="136.8492"
       x2="166.19946"
       y2="136.8492" />
    <linearGradient
       inkscape:collect="always"
       xlink:href="#linearGradient1183"
       id="linearGradient891"
       gradientUnits="userSpaceOnUse"
       gradientTransform="translate(0.52916667,-1.0583333)"
       x1="141.78062"
       y1="136.8492"
       x2="166.19946"
       y2="136.8492" />
    <linearGradient
       inkscape:collect="always"
       xlink:href="#linearGradient1183"
       id="linearGradient893"
       gradientUnits="userSpaceOnUse"
       gradientTransform="translate(0.52916667,-1.0583333)"
       x1="141.78062"
       y1="136.8492"
       x2="166.19946"
       y2="136.8492" />
    <linearGradient
       inkscape:collect="always"
       xlink:href="#linearGradient1183"
       id="linearGradient895"
       gradientUnits="userSpaceOnUse"
       gradientTransform="translate(0.52916667,-1.0583333)"
       x1="141.78062"
       y1="136.8492"
       x2="166.19946"
       y2="136.8492" />
    <linearGradient
       inkscape:collect="always"
       xlink:href="#linearGradient1183"
       id="linearGradient897"
       gradientUnits="userSpaceOnUse"
       gradientTransform="translate(0.52916667,-1.0583333)"
       x1="141.78062"
       y1="136.8492"
       x2="166.19946"
       y2="136.8492" />
    <linearGradient
       inkscape:collect="always"
       xlink:href="#linearGradient1183"
       id="linearGradient899"
       gradientUnits="userSpaceOnUse"
       gradientTransform="translate(0.52916667,-1.0583333)"
       x1="141.78062"
       y1="136.8492"
       x2="166.19946"
       y2="136.8492" />
    <linearGradient
       inkscape:collect="always"
       xlink:href="#linearGradient1183"
       id="linearGradient901"
       gradientUnits="userSpaceOnUse"
       gradientTransform="translate(0.52916667,-1.0583333)"
       x1="141.78062"
       y1="136.8492"
       x2="166.19946"
       y2="136.8492" />
    <linearGradient
       inkscape:collect="always"
       xlink:href="#linearGradient1183"
       id="linearGradient903"
       gradientUnits="userSpaceOnUse"
       gradientTransform="translate(0.52916667,-1.0583333)"
       x1="141.78062"
       y1="136.8492"
       x2="166.19946"
       y2="136.8492" />
  </defs>
  <sodipodi:namedview
     id="base"
     pagecolor="#ffffff"
     bordercolor="#666666"
     borderopacity="1.0"
     inkscape:pageopacity="0.0"
     inkscape:pageshadow="2"
     inkscape:zoom="0.7"
     inkscape:cx="319.8544"
     inkscape:cy="254.26463"
     inkscape:document-units="mm"
     inkscape:current-layer="layer1"
     inkscape:document-rotation="0"
     showgrid="false"
     inkscape:window-width="1920"
     inkscape:window-height="1027"
     inkscape:window-x="1912"
     inkscape:window-y="-8"
     inkscape:window-maximized="1" />
  <metadata
     id="metadata5">
    <rdf:RDF>
      <cc:Work
         rdf:about="">
        <dc:format>image/svg+xml</dc:format>
        <dc:type
           rdf:resource="http://purl.org/dc/dcmitype/StillImage" />
        <dc:title></dc:title>
      </cc:Work>
    </rdf:RDF>
  </metadata>
  <g
     inkscape:label="Layer 1"
     inkscape:groupmode="layer"
     id="layer1">
    <rect
       style="opacity:1;fill:url(#linearGradient1209);fill-opacity:1;stroke:none;stroke-width:0.973827;stroke-opacity:1;filter:url(#filter1140)"
       id="rect837"
       width="159.4747"
       height="29.860121"
       x="0.043554779"
       y="24.30658"
       ry="11.141835" />
    <ellipse
       style="opacity:0.999;mix-blend-mode:difference;fill:none;fill-opacity:1;stroke:url(#linearGradient1217);stroke-width:3.35139;stroke-miterlimit:4;stroke-dasharray:none;stroke-opacity:1"
       id="path849"
       cx="46.743793"
       cy="39.557877"
       rx="40.528019"
       ry="37.882183" />
    <g
       aria-label="Techno Logic"
       transform="matrix(0.92988016,0,0,1.0754074,-20.398405,-87.498787)"
       id="text853"
       style="font-style:normal;font-variant:normal;font-weight:normal;font-stretch:normal;font-size:16.9333px;line-height:1.75;font-family:DymaxionScript;-inkscape-font-specification:DymaxionScript;text-align:center;letter-spacing:5.19642px;word-spacing:0.738187px;text-anchor:middle;fill:#000000;fill-opacity:1;stroke:none;stroke-width:0.284535">
      <path
         d="m 44.866562,110.66657 q 0.23151,0 0.338997,0.28939 0.0083,0.0413 0.0083,0.0909 v 0.0413 q 0,0.39688 -0.520897,0.39688 h -3.108848 v 10.52543 q 0,0.23151 -0.289388,0.339 -0.04134,0.008 -0.09095,0.008 h -0.04134 q -0.297656,0 -0.388606,-0.32246 v -10.55024 h -3.10058 q -0.529166,0 -0.529166,-0.39688 v -0.0413 q 0,-0.29765 0.322461,-0.38034 z"
         style="font-style:normal;font-variant:normal;font-weight:normal;font-stretch:normal;font-size:16.9333px;font-family:'Techno LCD';-inkscape-font-specification:'Techno LCD';text-align:center;text-anchor:middle;stroke-width:0.284535"
         id="path862" />
      <path
         d="m 50.12086,115.95823 h 3.348626 q 0.727603,0 1.256768,0.71933 0.223242,0.41341 0.223242,0.74414 v 0.66146 q 0,0.56224 -0.487825,1.05833 -0.41341,0.41341 -1.215427,0.41341 h -3.671086 v 1.4304 q 0,0.35554 0.429947,0.52917 0.04134,0.0248 0.124023,0.0248 h 4.274666 q 0.37207,0 0.454752,0.14056 0.09095,0.11576 0.09095,0.24805 v 0.0496 q 0,0.28939 -0.32246,0.38034 h -4.497908 q -0.735871,0 -1.215427,-0.75241 -0.157096,-0.339 -0.157096,-0.62012 v -3.66282 q 0,-0.64492 0.628384,-1.12447 0.380337,-0.23978 0.735871,-0.23978 z m -0.545702,1.37252 v 1.4056 h 3.762036 q 0.578775,0 0.768944,-0.50436 0.02481,-0.12403 0.02481,-0.1571 v -0.64492 q 0,-0.37207 -0.446484,-0.60358 -0.115755,-0.0496 -0.206705,-0.0496 h -3.348626 q -0.355533,0 -0.529166,0.42995 -0.0248,0.0413 -0.0248,0.12402 z"
         style="font-style:normal;font-variant:normal;font-weight:normal;font-stretch:normal;font-size:16.9333px;font-family:'Techno LCD';-inkscape-font-specification:'Techno LCD';text-align:center;text-anchor:middle;stroke-width:0.284535"
         id="path864" />
      <path
         d="m 62.758671,115.95823 h 4.473103 q 0.23151,0 0.338997,0.29766 0.0083,0.0413 0.0083,0.0827 v 0.0496 q 0,0.28938 -0.32246,0.38033 -0.124023,0.008 -0.223242,0.008 h -4.274666 q -0.355533,0 -0.529165,0.42995 -0.02481,0.0413 -0.02481,0.12402 v 3.65455 q 0,0.35554 0.429947,0.52917 0.04134,0.0248 0.124023,0.0248 h 4.274666 q 0.37207,0 0.454752,0.14056 0.09095,0.11576 0.09095,0.24805 v 0.0496 q 0,0.28939 -0.32246,0.38034 h -4.497908 q -0.628384,0 -1.099672,-0.58705 -0.272851,-0.3886 -0.272851,-0.77721 v -3.66282 q 0,-0.7276 0.752407,-1.21542 0.338997,-0.1571 0.620116,-0.1571 z"
         style="font-style:normal;font-variant:normal;font-weight:normal;font-stretch:normal;font-size:16.9333px;font-family:'Techno LCD';-inkscape-font-specification:'Techno LCD';text-align:center;text-anchor:middle;stroke-width:0.284535"
         id="path866" />
      <path
         d="m 74.396029,110.66657 h 0.04961 q 0.388606,0 0.388606,0.52917 v 4.89478 q 0.281119,-0.13229 0.686262,-0.13229 h 3.389967 q 1.083136,0 1.446937,1.02526 0.05788,0.1819 0.05788,0.33899 v 4.65501 q 0,0.33073 -0.413411,0.38034 -0.281119,0 -0.388606,-0.28939 -0.01654,-0.0579 -0.01654,-0.26458 v -4.47311 q 0,-0.34726 -0.429947,-0.52916 -0.107487,-0.0248 -0.173633,-0.0248 h -3.563599 q -0.421679,0 -0.595312,0.48783 v 4.56405 q 0,0.52917 -0.388606,0.52917 h -0.04961 q -0.289388,0 -0.380338,-0.32246 v -11.02153 q 0,-0.19017 0.223242,-0.31419 0.07441,-0.0331 0.157096,-0.0331 z"
         style="font-style:normal;font-variant:normal;font-weight:normal;font-stretch:normal;font-size:16.9333px;font-family:'Techno LCD';-inkscape-font-specification:'Techno LCD';text-align:center;text-anchor:middle;stroke-width:0.284535"
         id="path868" />
      <path
         d="m 88.216197,115.97477 h 3.05097 q 0.735871,0 1.215427,0.7524 0.157096,0.33073 0.157096,0.61185 v 4.67154 q 0,0.23151 -0.289387,0.339 -0.04134,0.008 -0.09095,0.008 h -0.04134 q -0.396875,0 -0.396875,-0.52917 v -4.48964 q 0,-0.34726 -0.41341,-0.5209 -0.09922,-0.0413 -0.363802,-0.0413 h -2.596218 q -0.471289,0 -0.595312,0.1819 -0.1819,0.1819 -0.1819,0.38034 v 4.48964 q 0,0.52917 -0.388607,0.52917 h -0.04961 q -0.289387,0 -0.380338,-0.32246 v -4.69635 q 0,-0.59531 0.537434,-1.0666 0.405143,-0.29765 0.826822,-0.29765 z"
         style="font-style:normal;font-variant:normal;font-weight:normal;font-stretch:normal;font-size:16.9333px;font-family:'Techno LCD';-inkscape-font-specification:'Techno LCD';text-align:center;text-anchor:middle;stroke-width:0.284535"
         id="path870" />
      <path
         d="m 100.44886,115.95823 h 2.84427 q 0.73587,0 1.21543,0.75241 0.15709,0.33899 0.15709,0.62011 v 3.65455 q 0,0.73587 -0.7524,1.21543 -0.339,0.1571 -0.62012,0.1571 h -2.84427 q -0.735867,0 -1.215423,-0.75241 -0.157096,-0.339 -0.157096,-0.62012 v -3.65455 q 0,-0.73587 0.752407,-1.21542 0.339002,-0.1571 0.620112,-0.1571 z m -0.553966,1.33945 v 3.7207 q 0,0.21497 0.281116,0.43821 0.16537,0.0827 0.27285,0.0827 h 2.84427 q 0.34726,0 0.52917,-0.42168 0.0248,-0.0661 0.0248,-0.0992 v -3.7207 q 0,-0.21497 -0.28112,-0.43822 -0.16536,-0.0827 -0.27285,-0.0827 h -2.84427 q -0.34726,0 -0.529161,0.42168 -0.02481,0.0744 -0.02481,0.0992 z"
         style="font-style:normal;font-variant:normal;font-weight:normal;font-stretch:normal;font-size:16.9333px;font-family:'Techno LCD';-inkscape-font-specification:'Techno LCD';text-align:center;text-anchor:middle;stroke-width:0.284535"
         id="path872" />
      <path
         d="m 121.6175,110.66657 h 0.0496 q 0.38861,0 0.38861,0.52917 v 10.3518 h 4.82863 q 0.24805,0 0.34727,0.339 v 0.091 q 0,0.28939 -0.33073,0.38034 h -5.31646 q -0.23151,0 -0.339,-0.28939 -0.008,-0.0496 -0.008,-0.0909 v -10.96365 q 0,-0.19017 0.22325,-0.31419 0.0744,-0.0331 0.15709,-0.0331 z"
         style="font-style:normal;font-variant:normal;font-weight:normal;font-stretch:normal;font-size:16.9333px;font-family:'Techno LCD';-inkscape-font-specification:'Techno LCD';text-align:center;text-anchor:middle;stroke-width:0.284535"
         id="path874" />
      <path
         d="m 135.04079,115.95823 h 2.84427 q 0.73587,0 1.21543,0.75241 0.15709,0.33899 0.15709,0.62011 v 3.65455 q 0,0.73587 -0.7524,1.21543 -0.339,0.1571 -0.62012,0.1571 h -2.84427 q -0.73587,0 -1.21542,-0.75241 -0.1571,-0.339 -0.1571,-0.62012 v -3.65455 q 0,-0.73587 0.75241,-1.21542 0.339,-0.1571 0.62011,-0.1571 z m -0.55397,1.33945 v 3.7207 q 0,0.21497 0.28112,0.43821 0.16537,0.0827 0.27285,0.0827 h 2.84427 q 0.34726,0 0.52917,-0.42168 0.0248,-0.0661 0.0248,-0.0992 v -3.7207 q 0,-0.21497 -0.28112,-0.43822 -0.16536,-0.0827 -0.27285,-0.0827 h -2.84427 q -0.34726,0 -0.52916,0.42168 -0.0248,0.0744 -0.0248,0.0992 z"
         style="font-style:normal;font-variant:normal;font-weight:normal;font-stretch:normal;font-size:16.9333px;font-family:'Techno LCD';-inkscape-font-specification:'Techno LCD';text-align:center;text-anchor:middle;stroke-width:0.284535"
         id="path876" />
      <path
         d="m 152.284,114.27978 h 0.0992 q 0.28112,0 0.37207,0.32246 v 0.0992 q 0,0.26458 -0.28939,0.37207 -0.40514,0.0331 -0.62838,0.12402 -0.44649,0.21498 -0.66973,0.74414 l -0.0413,0.14056 q 0.62012,0.42995 0.62012,1.28984 v 1.5627 q 0,1.1162 -1.03353,1.48001 -0.23151,0.0579 -0.48783,0.0579 h -1.99263 q -0.65319,0.77722 -0.84336,1.05833 l 0.0579,0.008 h 3.86952 q 0.40514,0.0496 0.40514,0.40515 0.008,1.38079 0.0248,1.83554 0,0.64492 -0.61185,1.12448 -0.37207,0.25631 -0.77721,0.25631 h -2.88561 q -0.56224,0 -1.03353,-0.5209 -0.33073,-0.40514 -0.33073,-0.9095 0,-0.34727 0.42168,-0.40514 0.34727,0 0.40515,0.42168 0,0.46302 0.51263,0.59531 0.13229,0.008 0.24804,0.008 h 2.43912 q 0.44649,0 0.58705,-0.1571 0.19843,-0.20671 0.19843,-0.40514 -0.008,-0.79375 -0.008,-1.33945 v -0.0909 h -3.24114 q -0.89297,0 -1.0666,-0.35554 -0.10749,-0.15709 -0.10749,-0.34726 0,-0.38861 0.66973,-1.17409 v -0.008 h -0.008 q -0.95085,0 -1.38079,-0.9343 -0.0827,-0.26459 -0.0827,-0.44649 v -1.90169 q 0,-0.66972 0.68627,-1.15755 0.34726,-0.2067 0.77721,-0.2067 h 3.19153 q 0.10748,-0.47129 0.59531,-1.00046 0.64492,-0.5457 1.33945,-0.5457 z m -5.77121,2.91868 v 1.90169 q 0,0.19017 0.1819,0.38034 0.19017,0.17363 0.41341,0.17363 h 3.20807 q 0.45475,0 0.59531,-0.49609 0.008,-0.0579 0.008,-0.11576 v -1.78593 q 0,-0.44648 -0.47955,-0.59531 -0.0579,-0.0165 -0.11576,-0.0165 h -3.2246 q -0.39687,0 -0.56224,0.42995 -0.0248,0.0413 -0.0248,0.12402 z"
         style="font-style:normal;font-variant:normal;font-weight:normal;font-stretch:normal;font-size:16.9333px;font-family:'Techno LCD';-inkscape-font-specification:'Techno LCD';text-align:center;text-anchor:middle;stroke-width:0.284535"
         id="path878" />
      <path
         d="m 159.58882,114.18056 h 0.0496 q 0.28939,0 0.39687,0.3142 v 1.28984 q 0,0.22324 -0.30592,0.33899 -0.0413,0.008 -0.0909,0.008 h -0.0496 q -0.28939,0 -0.39687,-0.31419 v -1.28984 q 0,-0.22324 0.30592,-0.339 0.0413,-0.008 0.0909,-0.008 z m 0.0331,2.73678 q 0.24805,0 0.37207,0.24805 0.0331,0.0744 0.0331,0.1819 v 4.56405 q 0,0.33073 -0.26458,0.42168 -0.0413,0.0248 -0.12402,0.0248 h -0.0496 q -0.26458,0 -0.37207,-0.28939 -0.0165,-0.0992 -0.0165,-0.1571 v -4.56405 q 0,-0.29766 0.27285,-0.40514 z"
         style="font-style:normal;font-variant:normal;font-weight:normal;font-stretch:normal;font-size:16.9333px;font-family:'Techno LCD';-inkscape-font-specification:'Techno LCD';text-align:center;text-anchor:middle;stroke-width:0.284535"
         id="path880" />
      <path
         d="m 167.84448,115.95823 h 4.4731 q 0.23151,0 0.339,0.29766 0.008,0.0413 0.008,0.0827 v 0.0496 q 0,0.28938 -0.32246,0.38033 -0.12402,0.008 -0.22324,0.008 h -4.27466 q -0.35554,0 -0.52917,0.42995 -0.0248,0.0413 -0.0248,0.12402 v 3.65455 q 0,0.35554 0.42995,0.52917 0.0413,0.0248 0.12403,0.0248 h 4.27466 q 0.37207,0 0.45475,0.14056 0.0909,0.11576 0.0909,0.24805 v 0.0496 q 0,0.28939 -0.32246,0.38034 h -4.4979 q -0.62839,0 -1.09968,-0.58705 -0.27285,-0.3886 -0.27285,-0.77721 v -3.66282 q 0,-0.7276 0.75241,-1.21542 0.339,-0.1571 0.62012,-0.1571 z"
         style="font-style:normal;font-variant:normal;font-weight:normal;font-stretch:normal;font-size:16.9333px;font-family:'Techno LCD';-inkscape-font-specification:'Techno LCD';text-align:center;text-anchor:middle;stroke-width:0.284535"
         id="path882" />
    </g>
    <g
       aria-label="Smart solutions"
       id="text1177"
       style="font-style:normal;font-variant:normal;font-weight:normal;font-stretch:normal;font-size:4.93889px;line-height:1.15;font-family:'Agency FB';-inkscape-font-specification:'Agency FB';fill:#0000db;fill-opacity:1;stroke:url(#linearGradient1185);stroke-width:0.264583;stroke-opacity:0.983936"
       transform="translate(-20.398405,-87.498787)">
      <path
         d="m 143.92761,137.40302 q 0,0.11816 -0.0748,0.19292 -0.0724,0.0748 -0.19051,0.0748 h -0.95016 q -0.11817,0 -0.19534,-0.0748 -0.0748,-0.0748 -0.0748,-0.19292 v -0.9574 h 0.33521 v 0.92846 h 0.81511 v -0.89952 l -1.0418,-1.25884 Q 142.442,135.0855 142.442,134.92875 v -0.76447 q 0,-0.11817 0.0748,-0.19292 0.0772,-0.0748 0.19534,-0.0748 h 0.95016 q 0.11816,0 0.19051,0.0748 0.0748,0.0747 0.0748,0.19292 v 0.87781 h -0.33521 v -0.84887 h -0.81511 v 0.79582 l 1.04662,1.25884 q 0.1037,0.1254 0.1037,0.28215 z"
         style="font-style:normal;font-variant:normal;font-weight:normal;font-stretch:normal;font-size:4.93889px;font-family:'Agency FB';-inkscape-font-specification:'Agency FB';fill:#0000db;fill-opacity:1;stroke:url(#linearGradient877);stroke-width:0.264583;stroke-opacity:0.983936"
         id="path885" />
      <path
         d="m 146.84078,137.6707 h -0.32074 v -2.05948 l -0.69935,0.0193 v 2.04019 h -0.31833 v -2.05948 l -0.69935,0.0193 v 2.04019 h -0.32074 v -2.34645 h 0.32074 v 0.0651 q 0.1881,-0.0241 0.3762,-0.0507 0.2291,-0.0289 0.37862,-0.0289 0.1471,0 0.21704,0.0892 0.20257,-0.0265 0.40273,-0.0555 0.26286,-0.0338 0.39791,-0.0338 0.26527,0 0.26527,0.26286 z"
         style="font-style:normal;font-variant:normal;font-weight:normal;font-stretch:normal;font-size:4.93889px;font-family:'Agency FB';-inkscape-font-specification:'Agency FB';fill:#0000db;fill-opacity:1;stroke:url(#linearGradient879);stroke-width:0.264583;stroke-opacity:0.983936"
         id="path887" />
      <path
         d="m 148.68804,137.6707 h -0.31591 v -0.0651 q -0.19052,0.0265 -0.38103,0.0506 -0.23633,0.0289 -0.37862,0.0289 -0.26286,0 -0.26286,-0.26045 v -0.85611 q 0,-0.27009 0.27251,-0.27009 h 0.75482 v -0.70659 h -0.68971 v 0.40032 h -0.31109 v -0.3955 q 0,-0.2725 0.27009,-0.2725 h 0.77171 q 0.27009,0 0.27009,0.2725 z m -0.31109,-0.2918 v -0.82958 h -0.71624 v 0.84405 z"
         style="font-style:normal;font-variant:normal;font-weight:normal;font-stretch:normal;font-size:4.93889px;font-family:'Agency FB';-inkscape-font-specification:'Agency FB';fill:#0000db;fill-opacity:1;stroke:url(#linearGradient881);stroke-width:0.264583;stroke-opacity:0.983936"
         id="path889" />
      <path
         d="m 150.44125,136.09595 h -0.31591 v -0.48473 l -0.59084,0.0193 v 2.04019 h -0.32074 v -2.34645 h 0.32074 v 0.0651 q 0.15917,-0.0241 0.32074,-0.0507 0.19293,-0.0289 0.32074,-0.0289 0.26527,0 0.26527,0.26286 z"
         style="font-style:normal;font-variant:normal;font-weight:normal;font-stretch:normal;font-size:4.93889px;font-family:'Agency FB';-inkscape-font-specification:'Agency FB';fill:#0000db;fill-opacity:1;stroke:url(#linearGradient883);stroke-width:0.264583;stroke-opacity:0.983936"
         id="path891" />
      <path
         d="m 151.69285,137.6707 h -0.45578 q -0.2701,0 -0.2701,-0.27251 v -1.79179 h -0.28215 v -0.28215 h 0.28215 v -0.73071 h 0.31592 v 0.73071 h 0.40996 v 0.28215 h -0.40996 v 1.78215 h 0.40996 z"
         style="font-style:normal;font-variant:normal;font-weight:normal;font-stretch:normal;font-size:4.93889px;font-family:'Agency FB';-inkscape-font-specification:'Agency FB';fill:#0000db;fill-opacity:1;stroke:url(#linearGradient885);stroke-width:0.264583;stroke-opacity:0.983936"
         id="path893" />
      <path
         d="m 154.33352,137.39819 q 0,0.27251 -0.27251,0.27251 h -0.73552 q -0.27251,0 -0.27251,-0.27251 v -0.53295 h 0.31591 v 0.52813 h 0.64872 v -0.46784 l -0.83923,-0.6873 q -0.12058,-0.0965 -0.12058,-0.2508 v -0.39068 q 0,-0.2725 0.27251,-0.2725 h 0.72588 q 0.27251,0 0.27251,0.2725 v 0.46785 h -0.31109 v -0.46302 h -0.64872 v 0.40996 l 0.84646,0.6873 q 0.11817,0.0941 0.11817,0.25562 z"
         style="font-style:normal;font-variant:normal;font-weight:normal;font-stretch:normal;font-size:4.93889px;font-family:'Agency FB';-inkscape-font-specification:'Agency FB';fill:#0000db;fill-opacity:1;stroke:url(#linearGradient887);stroke-width:0.264583;stroke-opacity:0.983936"
         id="path895" />
      <path
         d="m 156.19043,137.39819 q 0,0.27251 -0.27251,0.27251 h -0.80546 q -0.2701,0 -0.2701,-0.27251 v -1.80144 q 0,-0.2725 0.2701,-0.2725 h 0.80546 q 0.27251,0 0.27251,0.2725 z m -0.32074,-0.01 v -1.78215 h -0.70659 v 1.78215 z"
         style="font-style:normal;font-variant:normal;font-weight:normal;font-stretch:normal;font-size:4.93889px;font-family:'Agency FB';-inkscape-font-specification:'Agency FB';fill:#0000db;fill-opacity:1;stroke:url(#linearGradient889);stroke-width:0.264583;stroke-opacity:0.983936"
         id="path897" />
      <path
         d="m 157.04895,137.6707 h -0.31592 v -3.7741 h 0.31592 z"
         style="font-style:normal;font-variant:normal;font-weight:normal;font-stretch:normal;font-size:4.93889px;font-family:'Agency FB';-inkscape-font-specification:'Agency FB';fill:#0000db;fill-opacity:1;stroke:url(#linearGradient891);stroke-width:0.264583;stroke-opacity:0.983936"
         id="path899" />
      <path
         d="m 158.9372,137.6707 h -0.31591 v -0.0651 q -0.19293,0.0265 -0.38344,0.0506 -0.23151,0.0289 -0.38344,0.0289 -0.26045,0 -0.26045,-0.26045 v -2.10047 h 0.31592 v 2.05947 l 0.71141,-0.0193 v -2.04018 h 0.31591 z"
         style="font-style:normal;font-variant:normal;font-weight:normal;font-stretch:normal;font-size:4.93889px;font-family:'Agency FB';-inkscape-font-specification:'Agency FB';fill:#0000db;fill-opacity:1;stroke:url(#linearGradient893);stroke-width:0.264583;stroke-opacity:0.983936"
         id="path901" />
      <path
         d="m 160.30456,137.6707 h -0.45578 q -0.2701,0 -0.2701,-0.27251 v -1.79179 h -0.28215 v -0.28215 h 0.28215 v -0.73071 h 0.31592 v 0.73071 h 0.40996 v 0.28215 h -0.40996 v 1.78215 h 0.40996 z"
         style="font-style:normal;font-variant:normal;font-weight:normal;font-stretch:normal;font-size:4.93889px;font-family:'Agency FB';-inkscape-font-specification:'Agency FB';fill:#0000db;fill-opacity:1;stroke:url(#linearGradient895);stroke-width:0.264583;stroke-opacity:0.983936"
         id="path903" />
      <path
         d="M 161.05456,134.81058 H 160.729 v -0.40514 h 0.32556 z m -0.005,2.86012 h -0.31592 v -2.34645 h 0.31592 z"
         style="font-style:normal;font-variant:normal;font-weight:normal;font-stretch:normal;font-size:4.93889px;font-family:'Agency FB';-inkscape-font-specification:'Agency FB';fill:#0000db;fill-opacity:1;stroke:url(#linearGradient897);stroke-width:0.264583;stroke-opacity:0.983936"
         id="path905" />
      <path
         d="m 162.94282,137.39819 q 0,0.27251 -0.27251,0.27251 h -0.80546 q -0.2701,0 -0.2701,-0.27251 v -1.80144 q 0,-0.2725 0.2701,-0.2725 h 0.80546 q 0.27251,0 0.27251,0.2725 z m -0.32074,-0.01 v -1.78215 h -0.70659 v 1.78215 z"
         style="font-style:normal;font-variant:normal;font-weight:normal;font-stretch:normal;font-size:4.93889px;font-family:'Agency FB';-inkscape-font-specification:'Agency FB';fill:#0000db;fill-opacity:1;stroke:url(#linearGradient899);stroke-width:0.264583;stroke-opacity:0.983936"
         id="path907" />
      <path
         d="m 164.81419,137.6707 h -0.32074 v -2.05948 l -0.70658,0.0193 v 2.04019 h -0.32074 v -2.34645 h 0.32074 v 0.0651 q 0.1881,-0.0241 0.37861,-0.0507 0.23151,-0.0289 0.38103,-0.0289 0.26768,0 0.26768,0.26286 z"
         style="font-style:normal;font-variant:normal;font-weight:normal;font-stretch:normal;font-size:4.93889px;font-family:'Agency FB';-inkscape-font-specification:'Agency FB';fill:#0000db;fill-opacity:1;stroke:url(#linearGradient901);stroke-width:0.264583;stroke-opacity:0.983936"
         id="path909" />
      <path
         d="m 166.59634,137.39819 q 0,0.27251 -0.27251,0.27251 h -0.73552 q -0.27251,0 -0.27251,-0.27251 v -0.53295 h 0.31591 v 0.52813 h 0.64872 v -0.46784 l -0.83923,-0.6873 q -0.12058,-0.0965 -0.12058,-0.2508 v -0.39068 q 0,-0.2725 0.27251,-0.2725 h 0.72588 q 0.27251,0 0.27251,0.2725 v 0.46785 h -0.31109 v -0.46302 h -0.64872 v 0.40996 l 0.84646,0.6873 q 0.11817,0.0941 0.11817,0.25562 z"
         style="font-style:normal;font-variant:normal;font-weight:normal;font-stretch:normal;font-size:4.93889px;font-family:'Agency FB';-inkscape-font-specification:'Agency FB';fill:#0000db;fill-opacity:1;stroke:url(#linearGradient903);stroke-width:0.264583;stroke-opacity:0.983936"
         id="path911" />
    </g>
  </g>
</svg>
