<svg width="154" height="142" viewBox="0 0 154 142" fill="none" xmlns="http://www.w3.org/2000/svg">
<path d="M98.995 22.6377H93.347C93.0591 22.6373 92.783 22.5228 92.5794 22.3192C92.3757 22.1156 92.2612 21.8395 92.2609 21.5515V15.9035C92.2612 15.6156 92.3757 15.3395 92.5794 15.1359C92.783 14.9323 93.0591 14.8177 93.347 14.8174H98.995C99.283 14.8177 99.559 14.9323 99.7627 15.1359C99.9663 15.3395 100.081 15.6156 100.081 15.9035V21.5515C100.081 21.8395 99.9663 22.1156 99.7627 22.3192C99.559 22.5228 99.283 22.6373 98.995 22.6377V22.6377ZM93.347 15.2518C93.1742 15.252 93.0086 15.3208 92.8864 15.4429C92.7642 15.5651 92.6955 15.7308 92.6953 15.9035V21.5515C92.6955 21.7243 92.7642 21.89 92.8864 22.0121C93.0086 22.1343 93.1742 22.203 93.347 22.2032H98.995C99.1678 22.203 99.3334 22.1343 99.4556 22.0121C99.5778 21.89 99.6465 21.7243 99.6467 21.5515V15.9035C99.6465 15.7308 99.5778 15.5651 99.4556 15.4429C99.3334 15.3208 99.1678 15.252 98.995 15.2518H93.347Z" fill="#E6E6E6"/>
<path d="M47.4017 41.3873H38.1154C37.6419 41.3868 37.188 41.1984 36.8532 40.8634C36.5184 40.5284 36.3301 40.0742 36.3296 39.6004V30.3086C36.3301 29.8348 36.5184 29.3807 36.8532 29.0457C37.188 28.7107 37.6419 28.5222 38.1154 28.5217H47.4017C47.8751 28.5222 48.3291 28.7107 48.6639 29.0457C48.9986 29.3807 49.187 29.8348 49.1875 30.3086V39.6004C49.187 40.0742 48.9986 40.5284 48.6639 40.8634C48.3291 41.1984 47.8751 41.3868 47.4017 41.3873V41.3873ZM38.1154 29.2365C37.8313 29.2368 37.559 29.3498 37.3581 29.5508C37.1572 29.7518 37.0442 30.0243 37.0439 30.3086V39.6004C37.0442 39.8847 37.1572 40.1572 37.3581 40.3582C37.559 40.5592 37.8313 40.6723 38.1154 40.6726H47.4017C47.6858 40.6723 47.9581 40.5592 48.159 40.3582C48.3599 40.1572 48.4729 39.8847 48.4732 39.6004V30.3086C48.4729 30.0243 48.3599 29.7518 48.159 29.5508C47.9581 29.3498 47.6858 29.2368 47.4017 29.2365H38.1154Z" fill="#E6E6E6"/>
<path d="M7.73224 0.000226665H59.6037C62.1068 0.000223156 64.5354 0.856509 66.4903 2.42833C68.4452 4.00015 69.8101 6.19397 70.3606 8.64916L96.5702 125.542C96.8561 126.817 96.8611 128.139 96.5849 129.416C96.3088 130.694 95.7581 131.894 94.9715 132.935C94.185 133.976 93.1816 134.831 92.0316 135.44C90.8817 136.049 89.6132 136.398 88.3149 136.463L34.9907 139.104C32.1353 139.246 29.3263 138.338 27.0878 136.55C24.8494 134.762 23.3343 132.216 22.8255 129.388L7.9578 46.7432L6.85171 47.061L4.00691 31.3968L5.14547 31.1105L0.995381 8.04153C0.817624 7.05344 0.858847 6.03809 1.11611 5.06785C1.37337 4.09762 1.84034 3.1964 2.48373 2.42844C3.12711 1.66047 3.93107 1.04468 4.83829 0.624965C5.7455 0.205246 6.73363 -0.0080674 7.73224 0.00023328V0.000226665Z" fill="#3F3D56"/>
<path d="M52.8618 2.4696H58.9513C60.7001 2.46961 62.3963 3.06599 63.7583 4.15975C65.1203 5.25352 66.0662 6.77887 66.439 8.4826L91.7402 124.115C91.8859 124.781 91.8857 125.471 91.7398 126.136C91.5939 126.802 91.3055 127.428 90.8946 127.973C90.4836 128.517 89.9596 128.967 89.3584 129.291C88.7572 129.615 88.093 129.805 87.4111 129.85L33.9561 133.343C32.4481 133.442 30.9564 132.983 29.7658 132.055C28.5752 131.127 27.7691 129.794 27.5011 128.311L5.91149 8.79321C5.77175 8.01964 5.80398 7.22491 6.0059 6.46512C6.20781 5.70532 6.5745 4.99898 7.08008 4.39592C7.58565 3.79287 8.2178 3.30781 8.93191 2.97497C9.64601 2.64213 10.4247 2.46962 11.2129 2.46962H16.9898C17.5489 2.46962 18.0924 2.65341 18.5362 2.99254C18.98 3.33168 19.2993 3.80723 19.4446 4.34559V4.34559C19.573 4.82086 19.8548 5.24069 20.2466 5.54008C20.6384 5.83948 21.1182 6.00174 21.6118 6.00174H49.0366C50.0032 6.00174 50.9341 5.63794 51.6433 4.98308C52.3525 4.32823 52.7876 3.43058 52.8618 2.46961L52.8618 2.4696Z" fill="white"/>
<path d="M9.94202 22.2261H67.9689L74.1507 49.9578L15.3656 51.0377L9.94202 22.2261Z" fill="#6C63FF"/>
<path d="M65.0957 74.9101H78.6591L79.0899 77.3797H65.5265L65.0957 74.9101Z" fill="#6C63FF"/>
<path d="M76.1417 61.5172L18.3721 62.7413L18.3778 63.0134L76.1475 61.7893L76.1417 61.5172Z" fill="#2F2E41"/>
<path d="M77.9086 69.5418L19.0515 70.9019L19.0578 71.1739L77.9149 69.8138L77.9086 69.5418Z" fill="#2F2E41"/>
<path d="M70.8579 102.899H84.4213L84.8521 105.368H71.2887L70.8579 102.899Z" fill="#6C63FF"/>
<path d="M81.7659 89.4384L23.9962 90.6625L24.002 90.9345L81.7716 89.7104L81.7659 89.4384Z" fill="#2F2E41"/>
<path d="M83.5328 97.463L24.6757 98.8231L24.6819 99.0951L83.539 97.735L83.5328 97.463Z" fill="#2F2E41"/>
<path d="M120.66 139.53L118.151 139.53L116.957 129.652L120.661 129.652L120.66 139.53Z" fill="#A0616A"/>
<path d="M121.484 142L113.252 142V141.896C113.252 141.05 113.59 140.239 114.191 139.641C114.792 139.043 115.606 138.707 116.456 138.707H116.456L121.484 138.707L121.484 142Z" fill="#2F2E41"/>
<path d="M152.765 138.115L150.348 138.707L147.003 129.291L150.57 128.417L152.765 138.115Z" fill="#A0616A"/>
<path d="M154 140.175L145.879 142L145.855 141.902C145.657 141.102 145.801 140.26 146.254 139.561C146.707 138.862 147.433 138.364 148.271 138.175L148.271 138.175L153.232 137.061L154 140.175Z" fill="#2F2E41"/>
<path d="M120.178 97.7269C120.182 97.2079 120.335 84.9602 123.677 80.3292L123.726 80.2609L135.372 81.875L135.111 84.4456C135.624 84.9461 139.653 89.176 140.816 99.1925L153.177 132.545L147.43 133.07L130.42 96.6613L121.418 136.238H115.722L120.178 97.7269Z" fill="#2F2E41"/>
<path d="M122.307 80.7293L123.444 74.7684C123.221 74.4824 122.236 73.1083 122.455 71.4977C122.598 70.4469 123.226 69.5255 124.322 68.7584L127.267 61.8915L127.307 61.8682C127.506 61.7514 132.196 59.0419 134.753 61.5983C134.817 61.6478 141.112 66.6404 138.584 73.3755L135.463 82.7304L122.307 80.7293Z" fill="#CCCCCC"/>
<path d="M118.52 88.8887C118.828 88.853 119.125 88.7493 119.389 88.5849C119.653 88.4205 119.878 88.1993 120.049 87.937C120.22 87.6747 120.332 87.3777 120.377 87.0668C120.422 86.7559 120.4 86.4387 120.311 86.1376L126.423 81.6721L122.764 80.2609L117.521 84.7177C117.032 84.9024 116.627 85.2625 116.382 85.7299C116.137 86.1972 116.07 86.7393 116.194 87.2535C116.317 87.7676 116.622 88.218 117.051 88.5194C117.479 88.8208 118.002 88.9522 118.52 88.8887V88.8887Z" fill="#A0616A"/>
<path d="M119.426 81.7537L128.767 74.3447L125.99 64.793C125.859 64.3407 125.822 63.8662 125.881 63.3989C125.941 62.9316 126.095 62.4816 126.334 62.0768C126.556 61.6953 126.854 61.3646 127.21 61.1059C127.567 60.8472 127.972 60.6662 128.402 60.5745C130.001 60.2338 131.453 61.1352 132.715 63.2541L132.725 63.2732C132.934 63.7874 137.8 75.8975 134.085 78.4873C130.45 81.0205 122.021 84.7083 121.937 84.7454L121.838 84.7884L119.426 81.7537Z" fill="#CCCCCC"/>
<path d="M131.98 58.8579C135.049 58.8579 137.536 56.3702 137.536 53.3014C137.536 50.2326 135.049 47.7449 131.98 47.7449C128.911 47.7449 126.423 50.2326 126.423 53.3014C126.423 56.3702 128.911 58.8579 131.98 58.8579Z" fill="#A0616A"/>
<path d="M140.829 51.4493C143.557 51.4493 145.768 49.1458 145.768 46.3044C145.768 43.4629 143.557 41.1594 140.829 41.1594C138.101 41.1594 135.89 43.4629 135.89 46.3044C135.89 49.1458 138.101 51.4493 140.829 51.4493Z" fill="#2F2E41"/>
<path d="M145.193 50.4783C144.551 50.9575 143.808 51.2711 143.025 51.3925C142.242 51.514 141.442 51.44 140.692 51.1766C139.943 50.9132 139.265 50.4681 138.716 49.8786C138.167 49.289 137.762 48.5722 137.536 47.788C137.622 48.4908 137.847 49.1675 138.199 49.7756C138.55 50.3838 139.02 50.91 139.578 51.3211C140.136 51.7322 140.771 52.0192 141.442 52.1641C142.113 52.309 142.805 52.3086 143.476 52.1629C144.147 52.0171 144.781 51.7293 145.339 51.3175C145.897 50.9057 146.366 50.379 146.716 49.7704C147.067 49.1619 147.292 48.4848 147.376 47.782C147.461 47.0791 147.404 46.3658 147.208 45.687C147.319 46.599 147.191 47.5251 146.836 48.3681C146.482 49.2111 145.914 49.94 145.193 50.4783V50.4783Z" fill="#2F2E41"/>
<path d="M125.188 50.4883C126.074 48.9111 126.412 48.2523 127.554 47.2932C128.563 46.4451 129.805 46.196 130.806 46.9996C131.991 46.4903 133.309 46.3748 134.565 46.6703C135.821 46.9658 136.948 47.6566 137.778 48.6401C138.608 49.6235 139.097 50.8471 139.172 52.1292C139.248 53.4112 138.906 54.6833 138.197 55.7565C137.488 56.8296 136.45 57.6466 135.237 58.0861C134.025 58.5255 132.702 58.564 131.466 58.1958C130.229 57.8276 129.145 57.0723 128.374 56.0422C127.604 55.0121 127.188 53.7621 127.188 52.4778C127.189 52.2523 127.202 52.027 127.229 51.803C126.358 51.6813 126.059 50.61 125.188 50.4883Z" fill="#2F2E41"/>
</svg>
