<svg width="222" height="152" viewBox="0 0 222 152" fill="none" xmlns="http://www.w3.org/2000/svg">
<path d="M0 0V7.63179V151.231H222V7.63179V0H0Z" fill="url(#paint0_linear)"/>
<path d="M219.648 6.8622H3.29211V148.495H219.648V6.8622Z" fill="white"/>
<path d="M219.648 0.125214H3.29211V10.5453H219.648V0.125214Z" fill="#EEEEEE"/>
<path d="M11.5255 7.70203C12.9203 7.70203 14.0511 6.57128 14.0511 5.17643C14.0511 3.78157 12.9203 2.65082 11.5255 2.65082C10.1306 2.65082 8.99988 3.78157 8.99988 5.17643C8.99988 6.57128 10.1306 7.70203 11.5255 7.70203Z" fill="#FF5252"/>
<path d="M18.4732 7.70203C19.8681 7.70203 20.9988 6.57128 20.9988 5.17643C20.9988 3.78157 19.8681 2.65082 18.4732 2.65082C17.0784 2.65082 15.9476 3.78157 15.9476 5.17643C15.9476 6.57128 17.0784 7.70203 18.4732 7.70203Z" fill="#FFFF00"/>
<path d="M25.421 7.70203C26.8158 7.70203 27.9466 6.57128 27.9466 5.17643C27.9466 3.78157 26.8158 2.65082 25.421 2.65082C24.0261 2.65082 22.8954 3.78157 22.8954 5.17643C22.8954 6.57128 24.0261 7.70203 25.421 7.70203Z" fill="#69F0AE"/>
<path opacity="0.5" d="M92.2076 27.235H11.5836V30.5944H92.2076V27.235Z" fill="#6C63FF"/>
<path opacity="0.5" d="M92.2076 33.9537H11.5836V37.313H92.2076V33.9537Z" fill="#6C63FF"/>
<path opacity="0.5" d="M92.2076 40.6723H11.5836V44.0317H92.2076V40.6723Z" fill="#6C63FF"/>
<path opacity="0.5" d="M92.2075 47.391H39.3744V50.7504H92.2075V47.391Z" fill="#6C63FF"/>
<path opacity="0.5" d="M54.0334 54.1097H11.5836V57.469H54.0334V54.1097Z" fill="#6C63FF"/>
<path opacity="0.5" d="M67.1653 60.8284H34.4882V64.1877H67.1653V60.8284Z" fill="#6C63FF"/>
<path opacity="0.5" d="M197.874 50.7504H102.896V105.416H197.874V50.7504Z" fill="#6C63FF"/>
<path d="M209.174 55.9421H114.196V110.608H209.174V55.9421Z" fill="#EEEEEE"/>
<path d="M167.335 110.608H114.196V100.594C127.178 94.5255 147.154 91.1173 167.335 110.608Z" fill="#6C63FF"/>
<g opacity="0.1">
<path opacity="0.1" d="M208.563 109.175V110.608H142.292V110.302C142.292 110.302 174.902 78.5504 208.563 109.175Z" fill="black"/>
</g>
<path d="M209.174 109.175V110.608H142.903V110.302C142.903 110.302 175.513 78.5504 209.174 109.175Z" fill="#6C63FF"/>
<path d="M125.19 70.601C127.889 70.601 130.076 68.4133 130.076 65.7147C130.076 63.016 127.889 60.8284 125.19 60.8284C122.492 60.8284 120.304 63.016 120.304 65.7147C120.304 68.4133 122.492 70.601 125.19 70.601Z" fill="#6C63FF"/>
<path d="M166.791 62.0194C166.232 62.0194 165.609 62.0194 165.184 62.053C164.995 62.0634 164.807 62.1015 164.629 62.166L161.755 63.1982C164.076 63.2562 166.498 63.2379 168.877 63.2196L182.216 63.1158C183.578 63.1158 185.008 63.0913 186.141 63.0119C186.901 62.9569 187.46 62.8775 188.162 62.8165C190.688 62.5905 194.368 62.6332 197.657 62.6454C200.946 62.6577 204.916 62.5722 206.074 62.2423H199.013C198.253 62.2423 197.452 62.2423 196.781 62.2057C195.996 62.1599 195.516 62.0744 194.826 62.0133C193.684 61.9156 192.108 61.9033 190.642 61.8972C182.595 61.8636 174.649 62.053 166.791 62.0194Z" fill="#F4F4F4"/>
<path d="M174.694 67.9379C174.572 67.9379 174.438 67.9379 174.346 67.9379C174.305 67.94 174.263 67.9482 174.224 67.9623L173.613 68.1853C174.117 68.1853 174.64 68.1853 175.156 68.1853L178.045 68.1639C178.35 68.1639 178.655 68.1639 178.894 68.1425C179.059 68.1425 179.181 68.112 179.33 68.0998C179.877 68.0509 180.674 68.0601 181.389 68.0631C182.001 68.0837 182.614 68.0541 183.221 67.9746H181.694C181.529 67.9746 181.355 67.9746 181.212 67.9746C181.068 67.9746 180.937 67.9471 180.787 67.9318C180.54 67.9104 180.198 67.9074 179.871 67.9074C178.13 67.9074 176.408 67.9471 174.694 67.9379Z" fill="#F4F4F4"/>
<path d="M154.233 76.4889C154.111 76.4889 153.977 76.4889 153.885 76.4889C153.843 76.491 153.802 76.4993 153.763 76.5134L153.152 76.7363C153.656 76.7363 154.178 76.7363 154.694 76.7363L157.583 76.7149C157.889 76.7149 158.194 76.7149 158.432 76.6936C158.597 76.6936 158.719 76.663 158.869 76.6508C159.416 76.6019 160.213 76.6111 160.927 76.6142C161.539 76.6347 162.152 76.6051 162.76 76.5256H161.233C161.068 76.5256 160.894 76.5256 160.75 76.5256C160.607 76.5256 160.475 76.4981 160.326 76.4828C160.078 76.4615 159.736 76.4584 159.409 76.4584C157.669 76.4584 155.946 76.4981 154.233 76.4889Z" fill="#F4F4F4"/>
<path d="M142.753 107.899H140.457C140.457 107.899 139.739 82.7831 142.753 75.0322H143.327C143.327 75.0322 141.318 103.449 142.753 107.899Z" fill="#6C63FF"/>
<path d="M141.175 73.7404C141.175 73.7404 139.309 78.9077 140.17 81.2042C140.17 81.2042 141.462 76.4676 142.967 75.7499C144.473 75.0322 146.052 81.2042 146.052 81.2042C146.052 81.2042 146.913 77.3288 145.334 74.1802C145.334 74.1802 148.492 75.9026 150.071 79.2039C150.071 79.2039 150.358 77.0662 146.626 72.6013C146.626 72.6013 149.927 73.4625 152.08 75.472C152.08 75.472 152.798 73.8931 148.348 71.3095C148.348 71.3095 148.922 69.4435 152.367 70.3047C152.367 70.3047 152.367 67.8616 146.913 68.2952C146.913 68.2952 146.913 66.7164 150.501 67.0034C150.501 67.0034 150.501 64.9939 146.339 65.7116C146.339 65.7116 147.2 64.4198 147.774 64.1327C147.056 64.0663 146.339 64.2712 145.765 64.7069C145.765 64.7069 145.908 62.1232 143.755 61.1185L143.468 64.7069C143.468 64.7069 141.055 61.8636 141.602 62.4103C141.746 62.5538 142.176 64.2763 142.033 65.1375C142.033 65.1375 139.59 63.128 136.578 65.281C136.578 65.281 140.31 65.5681 140.884 66.8599C140.884 66.8599 137.727 66.2858 137.009 66.7164C137.009 66.7164 139.452 67.5776 139.306 68.1517C139.306 68.1517 134.999 68.1517 134.419 69.7306C134.419 69.7306 138.869 70.3047 139.156 70.7353C139.156 70.7353 133.989 74.4673 133.702 75.472C133.702 75.472 139.012 72.3142 139.874 72.3142C140.735 72.3142 135.998 76.8951 136.285 78.0556C136.297 78.0465 140.185 73.4533 141.175 73.7404Z" fill="#6C63FF"/>
<path d="M171.079 106.958H172.832C172.832 106.958 173.381 87.7702 171.079 81.8486H170.639C170.639 81.8486 172.178 103.553 171.079 106.958Z" fill="#6C63FF"/>
<path d="M172.285 80.8622C172.285 80.8622 173.711 84.8109 173.051 86.5639C173.051 86.5639 172.065 82.945 170.914 82.3983C169.762 81.8517 168.556 86.5639 168.556 86.5639C168.556 86.5639 167.899 83.6046 169.106 81.192C167.562 82.1056 166.308 83.4362 165.487 85.0308C165.487 85.0308 165.267 83.3848 168.119 79.9857C168.119 79.9857 165.597 80.6423 163.954 82.1785C163.954 82.1785 163.404 80.9721 166.806 78.9993C166.806 78.9993 166.366 77.5731 163.737 78.2328C163.737 78.2328 163.737 76.3699 167.903 76.7058C167.903 76.7058 167.903 75.4995 165.154 75.7194C165.154 75.7194 165.154 74.1924 168.333 74.733C168.333 74.733 167.677 73.7465 167.237 73.5266C167.783 73.4784 168.327 73.6351 168.764 73.9664C168.764 73.9664 168.654 71.9936 170.291 71.2179L170.511 73.9664C170.511 73.9664 172.343 71.7951 171.937 72.2135C171.674 72.8748 171.561 73.5861 171.607 74.2962C171.607 74.2962 173.47 72.7693 175.773 74.4062C175.773 74.4062 172.92 74.6261 172.483 75.6125C172.483 75.6125 174.896 75.1727 175.443 75.5025C175.443 75.5025 173.58 76.1591 173.69 76.5989C173.69 76.5989 176.979 76.5989 177.419 77.8052C177.419 77.8052 174.02 78.245 173.8 78.5718C173.8 78.5718 177.748 81.4241 177.965 82.1907C177.965 82.1907 173.91 79.7781 173.25 79.7781C172.59 79.7781 176.209 83.287 175.999 84.1635C176.014 84.1513 173.055 80.6484 172.285 80.8622Z" fill="#6C63FF"/>
<path d="M192.068 103.208H193.156C193.156 103.208 193.495 91.325 192.068 87.6572H191.797C191.797 87.6572 192.746 101.11 192.068 103.208Z" fill="#6C63FF"/>
<path d="M192.817 87.0464C192.817 87.0464 193.699 89.4896 193.293 90.5768C193.293 90.5768 192.682 88.3352 191.968 87.9962C191.253 87.6572 190.508 90.5768 190.508 90.5768C190.508 90.5768 190.102 88.7444 190.847 87.248C189.891 87.8134 189.114 88.6369 188.605 89.6239C188.605 89.6239 188.471 88.6039 190.236 86.4998C189.289 86.7634 188.409 87.2268 187.655 87.8588C187.655 87.8588 187.316 87.1106 189.421 85.889C189.421 85.889 189.149 85.0064 187.518 85.4126C187.518 85.4126 187.518 84.2582 190.099 84.4628C190.099 84.4628 190.099 83.7146 188.401 83.852C188.401 83.852 188.401 82.9022 190.37 83.2412C190.188 82.9551 189.959 82.7021 189.692 82.493C190.032 82.4618 190.371 82.5588 190.642 82.7648C190.642 82.7648 190.575 81.5432 191.592 81.0668L191.726 82.7648C191.726 82.7648 192.868 81.4211 192.609 81.6776C192.446 82.0868 192.376 82.5269 192.404 82.9664C192.782 82.6913 193.239 82.5488 193.706 82.5609C194.173 82.5731 194.622 82.7393 194.985 83.0335C194.985 83.0335 193.22 83.1679 192.948 83.7818C192.948 83.7818 194.441 83.51 194.78 83.7146C194.78 83.7146 193.626 84.1207 193.693 84.3925C193.693 84.3925 195.73 84.3925 196.002 85.1408C196.002 85.1408 193.898 85.4126 193.76 85.6172C193.76 85.6172 196.203 87.3823 196.341 87.8588C196.341 87.8588 193.827 86.3654 193.421 86.3654C193.015 86.3654 195.254 88.5398 195.119 89.0803C195.125 89.0834 193.29 86.909 192.817 87.0464Z" fill="#6C63FF"/>
<path d="M152.367 89.7705L152.138 88.549C152.138 88.4591 152.119 88.3703 152.083 88.2879C152.048 88.2055 151.996 88.1312 151.93 88.0695L150.871 87.5503C150.793 87.4586 150.729 87.3557 150.681 87.2449L150.7 87.2175C150.758 87.1449 150.8 87.0605 150.822 86.9701C150.824 86.9467 150.824 86.9232 150.822 86.8998H150.837C150.935 86.9129 151.034 86.8887 151.115 86.8322C151.196 86.7756 151.252 86.6908 151.274 86.5944V86.567C151.255 86.6495 151.21 86.7238 151.146 86.7788C151.081 86.8338 151.001 86.8666 150.916 86.8724C151.064 86.7736 151.185 86.64 151.269 86.4834C151.352 86.3268 151.396 86.152 151.396 85.9745C151.396 85.9745 151.396 85.944 151.396 85.9287C151.443 85.9 151.483 85.8618 151.514 85.8166C151.545 85.7713 151.566 85.72 151.576 85.666V85.6386C151.563 85.6898 151.54 85.7378 151.508 85.7798C151.476 85.8218 151.436 85.8569 151.39 85.8829C151.382 85.7784 151.36 85.6755 151.323 85.5775H151.35C151.455 85.5775 151.555 85.536 151.629 85.4621C151.703 85.3882 151.744 85.288 151.744 85.1835C151.744 85.1835 151.744 85.1652 151.744 85.156C151.737 85.2552 151.693 85.348 151.621 85.416C151.548 85.4839 151.453 85.522 151.353 85.5225H151.304V85.5042C151.421 85.469 151.526 85.4012 151.606 85.3087C151.686 85.2163 151.738 85.1029 151.756 84.982C151.756 84.982 151.756 84.9636 151.756 84.9545C151.751 85.031 151.723 85.1043 151.677 85.1652C151.682 85.0674 151.651 84.9711 151.589 84.8952C151.527 84.8193 151.439 84.7692 151.342 84.7547C151.245 84.7402 151.146 84.7623 151.065 84.8168C150.983 84.8712 150.925 84.9541 150.901 85.0492L150.831 85.0094C150.853 84.9308 150.899 84.8609 150.962 84.8095C151.026 84.758 151.104 84.7276 151.185 84.7224H151.158C151.075 84.7217 150.995 84.747 150.927 84.7947C150.86 84.8424 150.809 84.91 150.782 84.9881C150.546 84.8783 150.278 84.8574 150.028 84.9293C149.778 85.0011 149.562 85.1607 149.42 85.379C149.338 85.4401 149.231 85.5286 149.234 85.605C149.198 85.6404 149.167 85.6793 149.139 85.721C149.023 85.976 148.98 86.2585 149.017 86.5364C149.034 86.6745 149.017 86.8147 148.968 86.945C148.919 87.0752 148.84 87.1918 148.736 87.2846C148.781 87.3036 148.83 87.3134 148.88 87.3134C148.929 87.3134 148.978 87.3036 149.023 87.2846C149.114 87.2463 149.199 87.1959 149.277 87.135C149.349 87.0911 149.41 87.0316 149.457 86.9609V86.9456C149.508 86.9796 149.562 87.0083 149.619 87.0312C149.64 87.2144 149.646 87.4251 149.564 87.4954L149.579 87.4618C149.382 87.6099 149.137 87.6796 148.892 87.6572C148.744 87.6656 148.6 87.7122 148.476 87.7925C148.351 87.8727 148.249 87.984 148.18 88.1153L147.847 89.5048V89.5293V89.5537C147.852 89.5724 147.862 89.5895 147.876 89.6029C147.89 89.6164 147.908 89.6257 147.927 89.6301L148.031 89.6575C148.046 89.895 148.022 90.1333 147.96 90.363C147.891 90.705 147.851 91.0524 147.841 91.4013C147.866 91.5754 147.908 92.4824 147.93 92.913C147.893 93.0601 147.863 93.2089 147.841 93.3589L147.349 96.309C147.349 96.309 146.983 98.6697 147.001 99.3843L146.937 99.7966C146.937 99.7966 145.939 101.049 146.232 101.226C146.525 101.403 146.977 101.479 147.408 100.814C147.466 100.657 147.56 100.516 147.682 100.401C147.731 100.359 147.769 100.306 147.793 100.246C147.817 100.185 147.826 100.121 147.82 100.056L147.789 99.7508L147.841 99.7691H147.872C147.872 99.7691 148.363 98.1536 148.308 97.0206C148.308 97.0206 149.225 93.7773 149.912 93.2673V93.2459L149.976 93.2154L150.122 96.3579L149.973 99.8211L149.939 100.029C149.939 100.029 148.941 101.281 149.234 101.458C149.527 101.635 149.979 101.711 150.41 101.046C150.468 100.889 150.562 100.748 150.684 100.633C150.733 100.591 150.771 100.538 150.795 100.478C150.819 100.418 150.828 100.353 150.822 100.288L150.776 99.8302C150.947 99.2469 151.387 97.5672 151.207 96.593L151.512 94.5225C151.817 94.1774 151.778 93.3009 151.778 93.3009C152.019 92.797 152.083 90.8211 152.083 90.8211L152.144 89.8438C152.19 89.8399 152.236 89.8399 152.282 89.8438H152.312H152.33V89.8255C152.339 89.8178 152.347 89.8085 152.352 89.798H152.37V89.7736L152.367 89.7705ZM151.512 91.7556C151.485 91.6884 151.454 91.6212 151.42 91.554H151.396V91.5296C151.395 91.5215 151.395 91.5133 151.396 91.5052V91.4807C151.41 91.448 151.423 91.4143 151.433 91.38C151.472 91.3169 151.492 91.2436 151.491 91.1692C151.527 91.3626 151.534 91.5602 151.512 91.7556V91.7556ZM151.42 90.9188L151.359 90.2653L151.378 90.2134L151.46 91.044L151.42 90.9188ZM148.525 91.0074C148.504 91.0315 148.489 91.0596 148.479 91.0901C148.47 91.1206 148.467 91.1528 148.47 91.1845C148.47 91.1845 148.47 91.1845 148.47 91.2059C148.471 91.272 148.48 91.3377 148.498 91.4013L148.403 91.8106V91.0288C148.466 90.9463 148.521 90.8584 148.568 90.7661C148.578 90.849 148.563 90.9329 148.525 91.0074V91.0074Z" fill="url(#paint1_linear)"/>
<path d="M149.142 85.9623C149.03 86.2076 148.989 86.4795 149.023 86.7471C149.039 86.8803 149.023 87.0153 148.975 87.1408C148.928 87.2662 148.851 87.3784 148.751 87.4679C148.795 87.4863 148.843 87.4957 148.89 87.4957C148.938 87.4957 148.985 87.4863 149.029 87.4679C149.117 87.4311 149.199 87.3828 149.274 87.3243C149.343 87.282 149.403 87.2246 149.448 87.1564C149.49 87.0508 149.504 86.936 149.487 86.8235C149.488 86.6239 149.505 86.4246 149.539 86.228C149.558 86.1058 149.674 85.7729 149.539 85.7088C149.405 85.6447 149.2 85.8707 149.142 85.9623Z" fill="#72351C"/>
<path d="M147.124 98.9446L147.029 99.5554C147.029 99.5554 146.067 100.777 146.351 100.933C146.635 101.088 147.069 101.177 147.484 100.536C147.54 100.385 147.629 100.249 147.747 100.139V100.139C147.794 100.098 147.83 100.046 147.853 99.9883C147.876 99.9303 147.884 99.8677 147.878 99.8058L147.783 98.8743L147.124 98.9446Z" fill="#333333"/>
<path d="M150.019 99.1858L149.924 99.7966C149.924 99.7966 148.962 101.018 149.246 101.174C149.53 101.33 149.964 101.418 150.379 100.777C150.435 100.626 150.525 100.49 150.642 100.38V100.38C150.689 100.339 150.725 100.287 150.748 100.23C150.771 100.172 150.779 100.109 150.773 100.047L150.678 99.1156L150.019 99.1858Z" fill="#333333"/>
<path d="M148.519 91.8839C148.519 91.8839 148.067 92.2106 147.908 93.3467L147.435 96.1899C147.435 96.1899 147.035 98.7674 147.108 99.2622L147.908 99.537C147.908 99.537 148.382 97.9795 148.33 96.8954C148.33 96.8954 149.292 93.4689 149.967 93.2306L150.11 96.2571L149.958 99.6622L150.642 99.7997C150.642 99.7997 151.335 97.6314 151.115 96.4831L151.472 94.0399C151.472 94.0399 151.882 92.7359 151.314 91.5968L148.519 91.8839Z" fill="#4D8AF0"/>
<g opacity="0.1">
<path opacity="0.1" d="M149.896 93.2765V93.2246C149.222 93.4658 148.26 96.8893 148.26 96.8893C148.243 97.7755 148.104 98.6552 147.847 99.5035L147.933 99.534C147.933 99.534 148.406 97.9765 148.354 96.8923C148.351 96.8954 149.231 93.7804 149.896 93.2765Z" fill="black"/>
<path opacity="0.1" d="M151.341 91.6121H151.249C151.578 92.3776 151.632 93.2331 151.402 94.0338L151.045 96.477C151.255 97.5642 150.642 99.5645 150.578 99.7753L150.666 99.7936C150.666 99.7936 151.359 97.6253 151.139 96.477L151.497 94.0338C151.497 94.0338 151.909 92.7359 151.341 91.6121Z" fill="black"/>
</g>
<path d="M147.905 89.6575C147.905 89.6809 147.912 89.7038 147.927 89.7222C147.941 89.7406 147.962 89.7533 147.985 89.7583C148.208 89.8144 148.417 89.9186 148.595 90.0637C148.931 90.3263 148.238 89.5384 148.238 89.5384L148.006 89.5903L147.911 89.6759L147.905 89.6575Z" fill="#F55F44"/>
<path opacity="0.1" d="M147.905 89.6575C147.905 89.6809 147.912 89.7038 147.927 89.7222C147.941 89.7406 147.962 89.7533 147.985 89.7583C148.208 89.8144 148.417 89.9186 148.595 90.0637C148.931 90.3263 148.238 89.5384 148.238 89.5384L148.006 89.5903L147.911 89.6759L147.905 89.6575Z" fill="black"/>
<path d="M151.21 90.3538C151.492 90.1533 151.819 90.0244 152.163 89.9782C152.186 89.9782 152.209 89.9689 152.225 89.9523C152.242 89.9357 152.251 89.9131 152.251 89.8896V89.8896C152.251 89.8896 151.451 89.5751 151.21 90.3538Z" fill="#F55F44"/>
<path opacity="0.1" d="M152.251 89.8866C152.251 89.8866 151.451 89.5812 151.21 90.3508C151.21 90.3508 151.799 89.8988 152.208 89.9721" fill="black"/>
<path d="M150.281 87.248C150.856 87.248 151.323 86.7817 151.323 86.2066C151.323 85.6314 150.856 85.1652 150.281 85.1652C149.706 85.1652 149.24 85.6314 149.24 86.2066C149.24 86.7817 149.706 87.248 150.281 87.248Z" fill="#72351C"/>
<path d="M149.564 86.9365C149.564 86.9365 149.71 87.5472 149.564 87.6725C149.417 87.7977 149.121 88.0298 149.344 88.21C149.567 88.3901 150.364 88.6955 150.63 88.5459C150.895 88.3962 151.198 88.4421 151.124 88.1367C151.051 87.8313 150.471 87.8954 150.462 86.3776L149.564 86.9365Z" fill="#FDB797"/>
<path opacity="0.1" d="M148.089 89.4743C148.11 89.8055 148.089 90.1381 148.024 90.4638C147.957 90.7927 147.918 91.1268 147.908 91.4624C147.939 91.6823 148.003 93.136 148.003 93.136C148.003 93.136 147.887 94.4095 148.507 94.2934C149.127 94.1774 148.412 92.8397 148.412 92.8397L148.443 91.102C148.611 90.8736 148.716 90.6051 148.748 90.3233C148.794 89.9049 148.089 89.4743 148.089 89.4743Z" fill="black"/>
<path d="M148.079 89.4743C148.101 89.8055 148.08 90.1381 148.015 90.4638C147.948 90.7927 147.909 91.1268 147.899 91.4624C147.93 91.6823 147.994 93.136 147.994 93.136C147.994 93.136 147.878 94.4095 148.498 94.2934C149.118 94.1774 148.403 92.8397 148.403 92.8397L148.434 91.102C148.602 90.8736 148.707 90.6051 148.739 90.3233C148.782 89.9049 148.079 89.4743 148.079 89.4743Z" fill="#FDB797"/>
<path opacity="0.1" d="M152.046 89.569L151.961 90.928C151.961 90.928 151.909 92.8336 151.677 93.3162C151.677 93.3162 151.741 94.6538 151.118 94.6202C150.495 94.5866 151.222 93.1573 151.222 93.1573C151.222 93.1573 151.555 91.6701 151.384 91.1998L151.222 89.569H152.046Z" fill="black"/>
<path d="M152.056 89.569L151.97 90.928C151.97 90.928 151.918 92.8336 151.686 93.3162C151.686 93.3162 151.75 94.6538 151.127 94.6202C150.504 94.5866 151.231 93.1573 151.231 93.1573C151.231 93.1573 151.564 91.6701 151.393 91.1998L151.231 89.569H152.056Z" fill="#FDB797"/>
<path opacity="0.1" d="M150.037 88.2527C150.037 88.2527 150.541 88.4848 150.816 87.7946L151.839 88.2955C151.902 88.3553 151.952 88.4273 151.986 88.5071C152.02 88.5869 152.038 88.6729 152.037 88.7597L152.257 89.9385C152.257 89.9385 151.509 89.685 151.277 90.3813L151.341 91.044C151.389 91.2077 151.377 91.3831 151.308 91.5388C151.301 91.5527 151.298 91.5678 151.298 91.583C151.298 91.5983 151.301 91.6134 151.308 91.6273C151.323 91.6756 151.327 91.7267 151.318 91.7767C151.31 91.8267 151.291 91.874 151.261 91.915C151.231 91.956 151.192 91.9894 151.147 92.0127C151.103 92.0359 151.053 92.0483 151.002 92.0488C150.727 92.0519 150.453 92.0734 150.181 92.1129C149.961 92.177 149.295 91.9877 149.075 92.1129C148.855 92.2381 148.391 92.0182 148.391 92.0182L148.516 91.4807C148.516 91.4807 148.431 91.2181 148.538 91.1234C148.644 91.0287 148.58 90.2072 148.486 89.9751C148.486 89.9751 148.107 89.6178 147.875 89.6697L148.18 88.3107C148.246 88.184 148.344 88.0765 148.464 87.9989C148.584 87.9213 148.722 87.8762 148.864 87.8679C149.101 87.8891 149.337 87.8216 149.527 87.6786C149.527 87.6786 149.298 88.1794 150.037 88.2527Z" fill="black"/>
<path opacity="0.1" d="M150.089 88.2283C150.226 88.2649 150.593 88.3046 150.813 87.7519L151.836 88.2527C151.899 88.3125 151.949 88.3845 151.983 88.4644C152.017 88.5442 152.035 88.6301 152.034 88.7169L152.254 89.8957C152.254 89.8957 151.506 89.6423 151.274 90.3386L151.338 91.0013L151.381 91.1326C151.399 91.1887 151.404 91.2484 151.395 91.3068C151.386 91.3651 151.363 91.4206 151.329 91.4685C151.314 91.485 151.305 91.5051 151.301 91.5266C151.297 91.5482 151.3 91.5703 151.308 91.5907C151.323 91.6389 151.327 91.6901 151.318 91.7401C151.31 91.79 151.291 91.8374 151.261 91.8784C151.231 91.9194 151.192 91.9528 151.147 91.976C151.103 91.9993 151.053 92.0116 151.002 92.0121C150.727 92.0153 150.453 92.0367 150.181 92.0763C149.961 92.1404 149.295 91.9511 149.075 92.0763C148.855 92.2015 148.391 91.9816 148.391 91.9816L148.516 91.4441C148.516 91.4441 148.431 91.1815 148.538 91.0868C148.644 90.9921 148.58 90.1706 148.486 89.9385C148.486 89.9385 148.107 89.5812 147.875 89.6331L148.18 88.2741C148.246 88.1474 148.344 88.0399 148.464 87.9623C148.584 87.8847 148.722 87.8395 148.864 87.8313C149.101 87.8525 149.337 87.785 149.527 87.6419C149.527 87.6419 149.28 88.0939 149.93 88.1917L150.089 88.2283Z" fill="black"/>
<path d="M150.089 88.2497C150.226 88.2863 150.593 88.326 150.813 87.7733L151.836 88.2741C151.899 88.3339 151.949 88.4059 151.983 88.4858C152.017 88.5656 152.034 88.6515 152.034 88.7383L152.254 89.9171C152.254 89.9171 151.506 89.6637 151.274 90.36L151.338 91.0227C151.386 91.1863 151.374 91.3618 151.304 91.5174C151.298 91.5314 151.295 91.5464 151.295 91.5617C151.295 91.5769 151.298 91.592 151.304 91.606C151.32 91.6542 151.323 91.7054 151.315 91.7553C151.307 91.8053 151.288 91.8527 151.258 91.8937C151.228 91.9346 151.189 91.9681 151.144 91.9913C151.099 92.0145 151.05 92.0269 150.999 92.0274C150.724 92.0306 150.45 92.052 150.177 92.0915C149.958 92.1557 149.292 91.9663 149.072 92.0915C148.852 92.2168 148.388 91.9969 148.388 91.9969L148.513 91.4594C148.513 91.4594 148.428 91.1967 148.534 91.1021C148.641 91.0074 148.577 90.1859 148.482 89.9538C148.482 89.9538 148.104 89.5965 147.872 89.6484L148.177 88.2894C148.243 88.1626 148.341 88.0552 148.461 87.9776C148.581 87.8999 148.719 87.8548 148.861 87.8466C149.098 87.8678 149.334 87.8003 149.524 87.6572C149.524 87.6572 149.277 88.1092 149.927 88.2069L150.089 88.2497Z" fill="#F55F44"/>
<path opacity="0.1" d="M150.477 86.4326L149.582 86.9915C149.605 87.0923 149.622 87.1942 149.634 87.2968C149.736 87.3375 149.845 87.3582 149.954 87.3579C150.173 87.3426 150.379 87.2494 150.535 87.0953C150.494 86.8767 150.475 86.6548 150.477 86.4326V86.4326Z" fill="black"/>
<path d="M149.936 87.2907C150.414 87.2907 150.801 86.9038 150.801 86.4265C150.801 85.9492 150.414 85.5622 149.936 85.5622C149.459 85.5622 149.072 85.9492 149.072 86.4265C149.072 86.9038 149.459 87.2907 149.936 87.2907Z" fill="#FDB797"/>
<path d="M151.21 85.7638C151.419 85.7638 151.588 85.5942 151.588 85.3851C151.588 85.176 151.419 85.0064 151.21 85.0064C151.001 85.0064 150.831 85.176 150.831 85.3851C150.831 85.5942 151.001 85.7638 151.21 85.7638Z" fill="#72351C"/>
<path d="M151.283 85.7852C151.187 85.7854 151.095 85.7493 151.024 85.6841C150.954 85.619 150.911 85.5296 150.904 85.434C150.904 85.434 150.904 85.4523 150.904 85.4614C150.904 85.5619 150.944 85.6582 151.015 85.7292C151.086 85.8002 151.183 85.8401 151.283 85.8401C151.383 85.8401 151.48 85.8002 151.551 85.7292C151.622 85.6582 151.662 85.5619 151.662 85.4614C151.662 85.4614 151.662 85.4431 151.662 85.434C151.655 85.5296 151.612 85.619 151.541 85.6841C151.471 85.7493 151.379 85.7854 151.283 85.7852V85.7852Z" fill="#72351C"/>
<path d="M151.066 86.1455C150.972 86.1276 150.889 86.0749 150.832 85.9978C150.775 85.9208 150.75 85.8252 150.761 85.7302V85.7546C150.743 85.8534 150.764 85.9554 150.821 86.0382C150.878 86.1209 150.966 86.1777 151.065 86.1959C151.163 86.2141 151.265 86.1923 151.348 86.1353C151.431 86.0784 151.488 85.9908 151.506 85.892V85.8645C151.483 85.9588 151.424 86.0406 151.342 86.0929C151.26 86.1451 151.162 86.164 151.066 86.1455Z" fill="#72351C"/>
<path d="M150.773 87.0617C150.679 87.0438 150.595 86.9911 150.539 86.914C150.482 86.837 150.457 86.7414 150.468 86.6464V86.6708C150.449 86.7696 150.471 86.8716 150.528 86.9544C150.585 87.0371 150.673 87.0939 150.771 87.1121C150.87 87.1303 150.972 87.1085 151.055 87.0515C151.138 86.9946 151.195 86.907 151.213 86.8082V86.7807C151.189 86.875 151.131 86.9568 151.049 87.0091C150.967 87.0613 150.868 87.0802 150.773 87.0617V87.0617Z" fill="#72351C"/>
<path d="M151.283 85.5836C151.187 85.5838 151.094 85.5473 151.023 85.4814C150.953 85.4156 150.911 85.3255 150.904 85.2293C150.904 85.2293 150.904 85.2476 150.904 85.2568C150.904 85.3572 150.944 85.4536 151.015 85.5246C151.086 85.5956 151.183 85.6355 151.283 85.6355C151.383 85.6355 151.48 85.5956 151.551 85.5246C151.622 85.4536 151.662 85.3572 151.662 85.2568C151.662 85.2568 151.662 85.2385 151.662 85.2293C151.655 85.3255 151.613 85.4156 151.542 85.4814C151.472 85.5473 151.379 85.5838 151.283 85.5836V85.5836Z" fill="#72351C"/>
<path d="M150.755 85.379C150.755 85.2826 150.793 85.1902 150.859 85.1204C150.925 85.0506 151.016 85.0088 151.112 85.0033H151.085C150.984 85.0033 150.888 85.0432 150.817 85.1142C150.746 85.1853 150.706 85.2816 150.706 85.382C150.706 85.4824 150.746 85.5788 150.817 85.6498C150.888 85.7208 150.984 85.7607 151.085 85.7607H151.112C151.015 85.7552 150.924 85.7125 150.857 85.6414C150.79 85.5703 150.754 85.4763 150.755 85.379V85.379Z" fill="#72351C"/>
<path opacity="0.1" d="M151.136 88.9521C151.176 89.1393 151.176 89.3329 151.136 89.5201C151.136 89.5201 151.084 90.0149 151.167 90.1004" fill="black"/>
<path opacity="0.1" d="M148.577 89.0681C148.617 89.2554 148.617 89.4489 148.577 89.6362C148.577 89.6362 148.525 90.1309 148.608 90.2164" fill="black"/>
<path opacity="0.1" d="M148.556 91.099C148.638 91.1284 148.727 91.1284 148.809 91.099C148.909 91.0687 149.015 91.0687 149.115 91.099" fill="black"/>
<path opacity="0.1" d="M148.684 90.3538C148.982 90.3681 149.279 90.3213 149.558 90.2164C149.558 90.2164 150.632 90.479 150.938 90.2897" fill="black"/>
<path d="M148.36 94.892H148.107C147.994 94.892 147.902 94.9836 147.902 95.0966C147.902 95.2096 147.994 95.3012 148.107 95.3012H148.36C148.473 95.3012 148.565 95.2096 148.565 95.0966C148.565 94.9836 148.473 94.892 148.36 94.892Z" fill="#FDB797"/>
<path d="M147.905 95.0019L148.26 94.9867L148.565 95.0355H148.458L147.905 95.0019Z" fill="#F0E4E4"/>
<path d="M150.293 93.2887H150.648L150.953 93.3192H150.846L150.293 93.2887Z" fill="#F0E4E4"/>
<path d="M150.293 93.362H150.648L150.953 93.3925H150.846L150.293 93.362Z" fill="#F0E4E4"/>
<path d="M150.293 93.4383H150.648L150.953 93.4689H150.846L150.293 93.4383Z" fill="#F0E4E4"/>
<path d="M150.293 93.5116H150.648L150.953 93.5421H150.846L150.293 93.5116Z" fill="#F0E4E4"/>
<path d="M147.905 95.2859H148.26L148.565 95.3226H148.458L147.905 95.2859Z" fill="#F0E4E4"/>
<path d="M147.905 95.2493H148.26L148.565 95.2859H148.458L147.905 95.2493Z" fill="#F0E4E4"/>
<path d="M147.905 95.2126H148.26L148.565 95.2493H148.458L147.905 95.2126Z" fill="#F0E4E4"/>
<path d="M147.905 95.176H148.26L148.565 95.2126H148.458L147.905 95.176Z" fill="#F0E4E4"/>
<path d="M147.905 94.9469L148.26 94.9317L148.565 94.9805H148.458L147.905 94.9469Z" fill="#F0E4E4"/>
<path d="M147.905 94.8828L148.26 94.8676L148.565 94.9164H148.458L147.905 94.8828Z" fill="#F0E4E4"/>
<path opacity="0.1" d="M150.083 85.8737C150.049 86.1965 150.091 86.5227 150.205 86.8265C150.262 86.974 150.287 87.1317 150.279 87.2895C150.271 87.4472 150.23 87.6016 150.159 87.7427C150.206 87.7535 150.255 87.753 150.302 87.7413C150.348 87.7297 150.392 87.7071 150.428 87.6755C150.504 87.609 150.57 87.5319 150.623 87.4465C150.68 87.3768 150.721 87.2955 150.743 87.2083C150.752 87.0711 150.731 86.9335 150.682 86.8051C150.622 86.5712 150.579 86.3335 150.553 86.0936C150.535 85.947 150.553 85.5255 150.388 85.4828C150.223 85.44 150.113 85.7515 150.083 85.8737Z" fill="black"/>
<path d="M150.104 85.8645C150.07 86.1873 150.112 86.5136 150.226 86.8174C150.283 86.9648 150.308 87.1225 150.3 87.2803C150.292 87.4381 150.252 87.5925 150.181 87.7336C150.227 87.7443 150.276 87.7439 150.323 87.7322C150.37 87.7205 150.413 87.698 150.449 87.6664C150.525 87.5999 150.591 87.5227 150.645 87.4373C150.701 87.3677 150.742 87.2863 150.764 87.1991C150.773 87.0619 150.752 86.9243 150.703 86.796C150.644 86.5621 150.601 86.3243 150.574 86.0844C150.556 85.9378 150.574 85.5164 150.41 85.4736C150.245 85.4309 150.135 85.7393 150.104 85.8645Z" fill="#72351C"/>
<path opacity="0.1" d="M149.732 86.0905C149.805 86.1669 149.82 86.2799 149.881 86.3654C149.935 86.4236 150.002 86.4691 150.076 86.4987C150.15 86.5283 150.229 86.5411 150.309 86.5364C150.352 86.5341 150.395 86.5436 150.434 86.5639C150.501 86.6066 150.504 86.7044 150.547 86.7716C150.57 86.7961 150.597 86.8156 150.628 86.829C150.659 86.8423 150.692 86.8492 150.726 86.8492C150.759 86.8492 150.792 86.8423 150.823 86.829C150.854 86.8156 150.881 86.7961 150.904 86.7716C150.992 86.6662 151.041 86.5333 151.042 86.3959C151.056 86.2446 151.056 86.0922 151.042 85.9409C151.038 85.7676 150.969 85.6021 150.849 85.4767C150.749 85.4024 150.633 85.3523 150.51 85.3301C150.343 85.2709 150.163 85.2572 149.988 85.2904C149.903 85.3186 149.823 85.3587 149.75 85.4095C149.646 85.4767 149.544 85.5449 149.444 85.6141C149.331 85.6935 149.118 85.8523 149.325 85.9378C149.457 85.9989 149.622 85.9714 149.732 86.0905Z" fill="black"/>
<path d="M149.753 86.0783C149.826 86.1547 149.842 86.2677 149.903 86.3532C149.957 86.4114 150.023 86.4569 150.097 86.4865C150.171 86.5161 150.251 86.5289 150.33 86.5242C150.374 86.5219 150.417 86.5314 150.455 86.5517C150.523 86.5944 150.526 86.6922 150.568 86.7594C150.591 86.7839 150.619 86.8034 150.65 86.8168C150.68 86.8301 150.714 86.837 150.747 86.837C150.781 86.837 150.814 86.8301 150.844 86.8168C150.875 86.8034 150.903 86.7839 150.926 86.7594C151.014 86.654 151.063 86.5211 151.063 86.3837C151.078 86.2324 151.078 86.08 151.063 85.9287C151.059 85.7554 150.99 85.5899 150.871 85.4645C150.771 85.3902 150.655 85.3401 150.532 85.3179C150.364 85.2587 150.184 85.245 150.01 85.2782C149.925 85.3064 149.845 85.3465 149.771 85.3973C149.668 85.4645 149.566 85.5327 149.466 85.6019C149.353 85.6813 149.139 85.8401 149.347 85.9256C149.478 85.9867 149.652 85.9623 149.753 86.0783Z" fill="#72351C"/>
<path d="M150.315 93.2887H150.669L150.974 93.3192H150.874L150.315 93.2887Z" fill="#F0E4E4"/>
<path d="M150.315 93.362H150.669L150.974 93.3925H150.874L150.315 93.362Z" fill="#F0E4E4"/>
<path d="M150.315 93.4383H150.669L150.974 93.4689H150.874L150.315 93.4383Z" fill="#F0E4E4"/>
<path d="M150.315 93.5116H150.669L150.974 93.5421H150.874L150.315 93.5116Z" fill="#F0E4E4"/>
<path d="M150.162 97.5642H150.516L150.822 97.5947H150.715L150.162 97.5642Z" fill="#F0E4E4"/>
<path d="M150.162 97.6405H150.516L150.822 97.6711H150.715L150.162 97.6405Z" fill="#F0E4E4"/>
<path d="M150.162 97.7138H150.516L150.822 97.7444H150.715L150.162 97.7138Z" fill="#F0E4E4"/>
<path d="M150.162 97.7871H150.516L150.822 97.8177H150.715L150.162 97.7871Z" fill="#F0E4E4"/>
<defs>
<linearGradient id="paint0_linear" x1="97318.1" y1="74889.6" x2="97318.1" y2="0" gradientUnits="userSpaceOnUse">
<stop stop-color="#808080" stop-opacity="0.25"/>
<stop offset="0.54" stop-color="#808080" stop-opacity="0.12"/>
<stop offset="1" stop-color="#808080" stop-opacity="0.1"/>
</linearGradient>
<linearGradient id="paint1_linear" x1="4405.07" y1="8136.32" x2="4405.07" y2="7203.36" gradientUnits="userSpaceOnUse">
<stop stop-color="#808080" stop-opacity="0.25"/>
<stop offset="0.54" stop-color="#808080" stop-opacity="0.12"/>
<stop offset="1" stop-color="#808080" stop-opacity="0.1"/>
</linearGradient>
</defs>
</svg>
